<svg width="1225" height="240" viewBox="0 0 1225 240" fill="none" xmlns="http://www.w3.org/2000/svg">
    <circle cx="53.5" cy="19.5" r="6.5" fill="#FDF375"/>
    <path d="M186.821 -4.58419L182.684 -0.475252C185.491 1.47467 187.548 7.46431 188.225 10.2154L193.448 7.92919L186.821 -4.58419Z"
          fill="#2E55FB"/>
    <path d="M111.359 57.4215L115.172 53.0098C112.225 51.279 109.718 45.4631 108.833 42.7715L103.8 45.4482L111.359 57.4215Z"
          fill="#2E55FB"/>
    <path d="M216.5 37.5545C215 36.5545 212 34.6545 212 35.0545C212 35.4545 210.667 37.5545 210 38.5545C210.4 38.9545 213.167 40.7211 214.5 41.5544L216.5 37.5545Z"
          fill="#2E55FB"/>
    <path d="M179.633 55.5C172.033 49.1 175.466 39.1667 178.133 35L183.133 40.5C179.933 44.9 178.5 49.2819 181.133 52.5C182.633 54.3333 187.265 58.1324 191 60C195 62 204.133 66.5 210.633 71C217.133 75.5 217.633 85.5 215.633 85.5C214.033 85.5 211.966 82.5 211.133 81C213.533 75.8 205 69.8333 200 67.5C196 65.6333 187.233 61.9 179.633 55.5Z"
          fill="white"/>
    <path d="M1083.09 37.4448C1083.59 29.5 1089.09 22.6114 1092.09 18.9448C1096.89 16.5448 1097.76 19.2781 1097.59 20.9448C1096.26 22.9448 1093.19 27.3 1091.59 30.5C1090.43 32.8223 1089.18 37.2747 1089.59 41.5C1089.89 44.5525 1090.45 48.4375 1091.09 51C1092.59 57 1097.09 57.6114 1099.09 57.9448C1101.59 58.6114 1109.59 59.7448 1121.59 58.9448C1133.59 58.1448 1137.59 69.2781 1138.09 74.9448L1139.09 95.9448C1139.59 99.9448 1141.49 109.645 1145.09 116.445C1148.69 123.245 1157.59 127.278 1161.59 128.445C1165.59 129.945 1171.49 133.045 1163.09 133.445C1152.59 133.945 1142.59 124 1139.09 119.945C1134.83 115.01 1131.59 97.9448 1131.59 97.9448C1131.59 97.9448 1131.09 86.9448 1130.09 75.4448C1129.29 66.2448 1122.43 63.2781 1119.09 62.9448C1115.43 62.6114 1107.17 62.9448 1103.09 62.9448C1098.09 62.9448 1092.59 61 1091.09 59.9448C1089.26 58.6582 1085.09 54 1084.59 52C1084.09 50 1082.62 44.93 1083.09 37.4448Z"
          fill="white"/>
    <path d="M1050.5 -6L1040.5 -10C1039.3 -6.4 1033.67 1.83333 1031 5.5L1040.5 11L1050.5 -6Z" fill="#68EC47"/>
    <path d="M146.5 15L136.5 11C135.3 14.6 129.667 22.8333 127 26.5L136.5 32L146.5 15Z" fill="#68EC47"/>
    <path d="M237 48.5238L233.41 47C232.979 48.3714 230.957 51.5079 230 52.9048L233.41 55L237 48.5238Z" fill="white"/>
    <path d="M939 45.2535L935.41 43.7297C934.979 45.1012 932.957 48.2377 932 49.6345L935.41 51.7297L939 45.2535Z"
          fill="white"/>
    <path d="M1206 115.524L1202.41 114C1201.98 115.371 1199.96 118.508 1199 119.905L1202.41 122L1206 115.524Z"
          fill="white"/>
    <path d="M11.2382 65.9467L17.0754 57.1795C20.0589 59.5089 29.215 63.2613 33.4202 64.8463L28.8261 74.5841L11.2382 65.9467Z"
          fill="#FDF375"/>
    <path d="M265.998 91.4195L260.935 86.5933C262.802 84.9097 266.309 79.3524 267.83 76.7842L273.671 80.909L265.998 91.4195Z"
          fill="#FDF375"/>
    <path d="M1000.24 67.6765L1006.08 58.9092C1009.06 61.2386 1018.22 64.991 1022.42 66.576L1017.83 76.3139L1000.24 67.6765Z"
          fill="#FDF375"/>
    <path d="M1212.37 157.551L1218.67 155.212C1219.34 157.534 1222.66 162.905 1224.24 165.3L1218.21 168.606L1212.37 157.551Z"
          fill="#FDF375"/>
    <path d="M1132.27 10.2319L1138.94 11.0186C1138.48 13.3895 1138.99 19.6839 1139.31 22.5347L1132.44 22.7359L1132.27 10.2319Z"
          fill="#FDF375"/>
    <path d="M1190.77 59.2394L1185.42 50.1692C1188.81 48.4964 1196.18 41.8847 1199.43 38.788L1206.2 47.1611L1190.77 59.2394Z"
          fill="#2D4EE0"/>
    <path d="M1196.37 236.485L1186.17 239.086C1185.51 235.358 1181.22 226.44 1179.16 222.446L1189.1 218.292L1196.37 236.485Z"
          fill="#2D4EE0"/>
    <path d="M1012.64 31.1945L1016.9 24.786C1019.08 26.4887 1025.78 29.2315 1028.85 30.3901L1025.49 37.508L1012.64 31.1945Z"
          fill="#2D4EE0"/>
    <path d="M61.1188 44.1161L67.1339 42.222C67.6496 44.4288 70.5082 49.6182 71.8731 51.937L66.0728 54.7506L61.1188 44.1161Z"
          fill="white"/>
    <path d="M1044.86 31.1161L1050.87 29.222C1051.39 31.4288 1054.25 36.6182 1055.61 38.937L1049.81 41.7506L1044.86 31.1161Z"
          fill="white"/>
    <path d="M3.05496 14.7263L8.92011 17.0434C7.93077 19.0824 6.88294 24.9136 6.48269 27.5743L0.20531 26.1067L3.05496 14.7263Z"
          fill="white"/>
    <path d="M986.795 1.72629L992.66 4.04344C991.671 6.08237 990.623 11.9136 990.223 14.5743L983.946 13.1067L986.795 1.72629Z"
          fill="white"/>
    <circle cx="1162.09" cy="53" r="7" fill="#DFD8FD"/>
    <circle cx="1217.5" cy="206.5" r="4.5" fill="#68EC47"/>
    <path d="M1156.82 177.214L1163.67 169.215C1166.35 171.888 1174.99 176.718 1178.97 178.799L1173.24 187.911L1156.82 177.214Z"
          fill="#68EC47"/>
</svg>
