<svg width="1404" height="783" viewBox="0 0 1404 783" fill="none" xmlns="http://www.w3.org/2000/svg">
    <path d="M53.0423 779.991C53.1093 780.047 1354.08 779.819 1354.08 779.819C1396.91 681.434 1396.84 633.364 1401.71 576.97C1428.62 265.273 1210.62 217.353 1146.76 204.356C951.208 164.56 1040.21 -32.349 530.64 4.59118C483.939 7.97514 373.82 35.3136 335.87 53.0224C309.25 65.4359 208.965 120.974 179.544 214.919C170.251 244.569 168.022 278.048 177.393 315.199C210.554 446.674 124.097 439.117 60.9212 501.773C-23.3996 585.394 -14.5868 722.142 53.0423 779.986V779.991Z"
          fill="#E5F8FF"/>
    <path d="M928.849 297.75H605.318V577.012H928.849V297.75Z" fill="#95C0F4"/>
    <path d="M922.556 302.398H611.474V571.439H922.556V302.398Z" fill="#DFEDFB"/>
    <path d="M720.202 419.459H652.037V334.347L663.595 323.925H720.202V419.459Z" fill="white"/>
    <path d="M652.037 334.347H663.223L663.595 323.925L652.037 334.347Z" fill="#B0D4FF"/>
    <path d="M697.029 332.211H675.205V333.25H697.029V332.211Z" fill="#B0D4FF"/>
    <path d="M702.169 335.329H670.065V336.368H702.169V335.329Z" fill="#B0D4FF"/>
    <path d="M713.407 355.353H660.104V356.688H713.407V355.353Z" fill="#B0D4FF"/>
    <path d="M713.407 359.41H660.104V360.745H713.407V359.41Z" fill="#B0D4FF"/>
    <path d="M713.407 363.468H660.104V364.803H713.407V363.468Z" fill="#B0D4FF"/>
    <path d="M713.407 367.525H660.104V368.86H713.407V367.525Z" fill="#B0D4FF"/>
    <path d="M713.407 410.954H660.104V412.289H713.407V410.954Z" fill="#B0D4FF"/>
    <path d="M798.913 537.545H730.744V452.428L742.306 442.01H798.913V537.545Z" fill="white"/>
    <path d="M730.744 452.428H741.934L742.306 442.01L730.744 452.428Z" fill="#B0D4FF"/>
    <path d="M775.745 450.297H753.917V451.336H775.745V450.297Z" fill="#B0D4FF"/>
    <path d="M780.881 453.415H748.777V454.454H780.881V453.415Z" fill="#B0D4FF"/>
    <path d="M792.119 473.439H738.816V474.774H792.119V473.439Z" fill="#B0D4FF"/>
    <path d="M792.119 477.496H738.816V478.831H792.119V477.496Z" fill="#B0D4FF"/>
    <path d="M792.119 481.554H738.816V482.889H792.119V481.554Z" fill="#B0D4FF"/>
    <path d="M792.119 485.611H738.816V486.946H792.119V485.611Z" fill="#B0D4FF"/>
    <path d="M792.119 498.097H738.816V499.432H792.119V498.097Z" fill="#B0D4FF"/>
    <path d="M792.119 502.155H738.816V503.49H792.119V502.155Z" fill="#B0D4FF"/>
    <path d="M792.119 506.861H738.816V508.196H792.119V506.861Z" fill="#B0D4FF"/>
    <path d="M837.378 323.925H799.738V357.108H837.378V323.925Z" fill="#B0D4FF"/>
    <path d="M816.913 327.877C816.913 326.966 817.652 326.227 818.563 326.227C819.474 326.227 820.213 326.966 820.213 327.877C820.213 328.788 819.474 329.527 818.563 329.527C817.652 329.527 816.913 328.788 816.913 327.877Z"
          fill="#FFA412"/>
    <path d="M836.168 367.581L798.62 370.2L800.929 403.303L838.477 400.684L836.168 367.581Z" fill="white"/>
    <path d="M816.179 374.953C816.117 374.047 816.799 373.256 817.71 373.194C818.616 373.132 819.407 373.813 819.469 374.724C819.531 375.635 818.849 376.421 817.939 376.483C817.028 376.545 816.241 375.864 816.179 374.953Z"
          fill="#B0D4FF"/>
    <path d="M711.08 489.816L673.531 492.435L675.84 525.538L713.389 522.919L711.08 489.816Z" fill="white"/>
    <path d="M691.097 497.196C691.035 496.29 691.717 495.499 692.627 495.437C693.533 495.375 694.325 496.057 694.387 496.967C694.449 497.873 693.767 498.665 692.856 498.727C691.95 498.789 691.159 498.107 691.097 497.196Z"
          fill="#B0D4FF"/>
    <path d="M663.869 513.564L626.231 513.951L626.573 547.133L664.211 546.745L663.869 513.564Z" fill="white"/>
    <path d="M643.444 519.81C643.434 518.899 644.164 518.155 645.075 518.146C645.985 518.136 646.729 518.866 646.739 519.776C646.748 520.687 646.019 521.431 645.108 521.44C644.197 521.45 643.453 520.72 643.444 519.81Z"
          fill="#B0D4FF"/>
    <path d="M893.179 394.159L856.126 387.539L850.289 420.205L887.342 426.824L893.179 394.159Z" fill="#EEF6FF"/>
    <path d="M872.438 395.059C872.576 394.281 873.32 393.762 874.102 393.9C874.884 394.038 875.399 394.782 875.26 395.564C875.122 396.346 874.378 396.861 873.596 396.722C872.819 396.584 872.3 395.84 872.438 395.059Z"
          fill="#78ACEA"/>
    <path d="M777.545 366.831L740.125 370.883L743.697 403.873L781.118 399.821L777.545 366.831Z" fill="#EEF6FF"/>
    <path d="M757.889 373.523C757.803 372.736 758.37 372.03 759.162 371.945C759.949 371.859 760.654 372.426 760.74 373.213C760.826 373.999 760.259 374.705 759.472 374.791C758.685 374.877 757.98 374.309 757.894 373.523H757.889Z"
          fill="#78ACEA"/>
    <path d="M679.841 445.274L643.029 453.125L649.952 485.578L686.763 477.727L679.841 445.274Z" fill="#BAE8E3"/>
    <path d="M661.582 454.821C660.919 454.392 660.728 453.505 661.158 452.838C661.587 452.175 662.474 451.984 663.141 452.413C663.804 452.843 663.995 453.729 663.565 454.397C663.136 455.06 662.249 455.25 661.582 454.821Z"
          fill="#FFA412"/>
    <path d="M778.525 357.108H742.702V333.04L752.62 323.925H778.525V357.108Z" fill="white"/>
    <path d="M742.507 333.04H752.296L752.62 323.925L742.507 333.04Z" fill="#B0D4FF"/>
    <path d="M760.745 326.995C760.745 326.347 761.274 325.817 761.923 325.817C762.571 325.817 763.101 326.347 763.101 326.995C763.101 327.643 762.571 328.173 761.923 328.173C761.274 328.173 760.745 327.643 760.745 326.995Z"
          fill="#B0D4FF"/>
    <path d="M883.205 554.132H847.377V530.065L857.295 520.954H883.205V554.132Z" fill="white"/>
    <path d="M847.186 530.065H856.97L857.294 520.954L847.186 530.065Z" fill="#B0D4FF"/>
    <path d="M865.419 524.024C865.419 523.376 865.949 522.847 866.597 522.847C867.246 522.847 867.775 523.376 867.775 524.024C867.775 524.673 867.246 525.202 866.597 525.202C865.949 525.202 865.419 524.673 865.419 524.024Z"
          fill="#B0D4FF"/>
    <path d="M899.545 506.369H863.717V482.297L873.64 473.186H899.545V506.369Z" fill="white"/>
    <path d="M863.526 482.297H873.315L873.64 473.186L863.526 482.297Z" fill="#B0D4FF"/>
    <path d="M881.765 476.257C881.765 475.608 882.294 475.079 882.942 475.079C883.591 475.079 884.12 475.608 884.12 476.257C884.12 476.905 883.591 477.434 882.942 477.434C882.294 477.434 881.765 476.905 881.765 476.257Z"
          fill="#B0D4FF"/>
    <path d="M852.269 506.369H816.441V482.297L826.359 473.186H852.269V506.369Z" fill="#BAE8E3"/>
    <path d="M816.25 482.297H826.035L826.359 473.186L816.25 482.297Z" fill="#A1D6CE"/>
    <path d="M834.484 476.257C834.484 475.608 835.013 475.079 835.662 475.079C836.31 475.079 836.839 475.608 836.839 476.257C836.839 476.905 836.31 477.434 835.662 477.434C835.013 477.434 834.484 476.905 834.484 476.257Z"
          fill="#F99746"/>
    <path d="M909.653 348.802H873.83V324.73L883.748 315.619H909.653V348.802Z" fill="#BAE8E3"/>
    <path d="M873.64 324.73H883.424L883.748 315.619L873.64 324.73Z" fill="#A1D6CE"/>
    <path d="M891.873 318.69C891.873 318.041 892.402 317.512 893.051 317.512C893.699 317.512 894.228 318.041 894.228 318.69C894.228 319.338 893.699 319.867 893.051 319.867C892.402 319.867 891.873 319.338 891.873 318.69Z"
          fill="#F99746"/>
    <path d="M588.606 780.172H588.773C589.746 780.172 590.523 779.371 590.504 778.403L587.882 664.736L580.157 663.835L586.747 778.408C586.804 779.394 587.624 780.172 588.611 780.172H588.606Z"
          fill="#B0D4FF"/>
    <path d="M633.627 780.172H633.794C634.766 780.172 635.544 779.371 635.525 778.403L632.902 664.736L625.178 663.835L631.767 778.408C631.825 779.394 632.645 780.172 633.632 780.172H633.627Z"
          fill="#95C0F4"/>
    <path d="M509.394 780.172H509.227C508.254 780.172 507.477 779.371 507.496 778.403L510.118 664.736L517.843 663.835L511.253 778.408C511.196 779.394 510.376 780.172 509.389 780.172H509.394Z"
          fill="#B0D4FF"/>
    <path d="M638.743 657.69V579.8C638.743 566.093 627.633 554.984 613.925 554.984H557.804C544.096 554.984 532.986 566.093 532.986 579.8V660.665L638.743 657.69Z"
          fill="#B0D4FF"/>
    <path d="M631.291 669.986H522.93V657.69H638.743V662.534C638.743 666.648 635.405 669.986 631.291 669.986Z"
          fill="#95C0F4"/>
    <path d="M591.929 669.986H509.951C506.909 669.986 504.439 667.516 504.439 664.474V663.196C504.439 660.155 506.909 657.685 509.951 657.685H591.929C594.971 657.685 597.441 660.155 597.441 663.196V664.474C597.441 667.516 594.971 669.986 591.929 669.986Z"
          fill="#CAE5FF"/>
    <path d="M448.834 363.855H380.688C377.547 363.855 375 366.402 375 369.543V435.309C375 438.45 377.547 440.997 380.688 440.997H448.834C451.976 440.997 454.523 438.45 454.523 435.309V369.543C454.523 366.402 451.976 363.855 448.834 363.855Z"
          fill="#C0D8FB"/>
    <path d="M383.64 367.198H445.883C448.748 367.198 451.08 369.524 451.08 372.394V432.462C451.08 435.328 448.753 437.659 445.883 437.659H383.64C380.774 437.659 378.442 435.332 378.442 432.462V372.394C378.442 369.529 380.769 367.198 383.64 367.198Z"
          fill="#DFEBFD"/>
    <path d="M413.116 374.235C413.116 373.324 413.855 372.59 414.761 372.59C415.667 372.59 416.406 373.329 416.406 374.235C416.406 375.141 415.667 375.88 414.761 375.88C413.855 375.88 413.116 375.141 413.116 374.235Z"
          fill="#B7D3F3"/>
    <path d="M426.405 376.566C426.849 375.77 427.85 375.484 428.646 375.927C429.442 376.371 429.728 377.372 429.285 378.168C428.842 378.964 427.84 379.25 427.044 378.807C426.248 378.364 425.962 377.362 426.405 376.566Z"
          fill="#B7D3F3"/>
    <path d="M437.796 385.61C438.559 385.119 439.579 385.339 440.075 386.101C440.566 386.864 440.347 387.885 439.584 388.38C438.821 388.871 437.801 388.652 437.305 387.889C436.814 387.126 437.033 386.106 437.796 385.61Z"
          fill="#B7D3F3"/>
    <path d="M443.436 399.613C444.347 399.613 445.081 400.352 445.081 401.258C445.081 402.164 444.342 402.903 443.436 402.903C442.531 402.903 441.792 402.164 441.792 401.258C441.792 400.352 442.531 399.613 443.436 399.613Z"
          fill="#B7D3F3"/>
    <path d="M440.552 415.861C441.196 416.505 441.196 417.549 440.552 418.193C439.908 418.836 438.864 418.836 438.221 418.193C437.577 417.549 437.577 416.505 438.221 415.861C438.864 415.218 439.908 415.218 440.552 415.861Z"
          fill="#B7D3F3"/>
    <path d="M430.21 426.231C430.854 426.875 430.854 427.919 430.21 428.562C429.566 429.206 428.522 429.206 427.878 428.562C427.235 427.919 427.235 426.875 427.878 426.231C428.522 425.587 429.566 425.587 430.21 426.231Z"
          fill="#B7D3F3"/>
    <path d="M413.116 431.576C413.116 430.665 413.855 429.931 414.761 429.931C415.667 429.931 416.406 430.67 416.406 431.576C416.406 432.481 415.667 433.22 414.761 433.22C413.855 433.22 413.116 432.481 413.116 431.576Z"
          fill="#B7D3F3"/>
    <path d="M403.065 376.566C402.621 375.77 401.62 375.484 400.824 375.927C400.027 376.371 399.741 377.372 400.185 378.168C400.628 378.964 401.63 379.25 402.426 378.807C403.222 378.364 403.508 377.362 403.065 376.566Z"
          fill="#B7D3F3"/>
    <path d="M391.679 385.61C390.916 385.119 389.896 385.339 389.4 386.101C388.909 386.864 389.128 387.885 389.891 388.38C390.654 388.871 391.674 388.652 392.17 387.889C392.661 387.126 392.442 386.106 391.679 385.61Z"
          fill="#B7D3F3"/>
    <path d="M386.038 399.613C385.127 399.613 384.393 400.352 384.393 401.258C384.393 402.164 385.132 402.903 386.038 402.903C386.944 402.903 387.688 402.164 387.688 401.258C387.688 400.352 386.949 399.613 386.038 399.613Z"
          fill="#B7D3F3"/>
    <path d="M388.918 415.861C388.274 416.505 388.274 417.549 388.918 418.193C389.562 418.836 390.606 418.836 391.249 418.193C391.893 417.549 391.893 416.505 391.249 415.861C390.606 415.218 389.562 415.218 388.918 415.861Z"
          fill="#B7D3F3"/>
    <path d="M399.26 426.231C398.616 426.875 398.616 427.919 399.26 428.562C399.904 429.206 400.948 429.206 401.592 428.562C402.235 427.919 402.235 426.875 401.592 426.231C400.948 425.587 399.904 425.587 399.26 426.231Z"
          fill="#B7D3F3"/>
    <path d="M414.318 401.258C414.318 400.347 415.057 399.613 415.968 399.613C416.878 399.613 417.613 400.352 417.613 401.258C417.613 402.164 416.874 402.903 415.968 402.903C415.062 402.903 414.318 402.164 414.318 401.258Z"
          fill="#B7D3F3"/>
    <path d="M416.187 380.681H415.739V401.258H416.187V380.681Z" fill="#B7D3F3"/>
    <path d="M426.251 392.135L415.342 400.701L416.175 401.762L427.084 393.196L426.251 392.135Z" fill="#B7D3F3"/>
    <path d="M1014.9 776.106C1014.57 780.53 1008.33 780.578 1001.24 779.758C994.154 778.938 996.038 780.731 986.115 780.869C976.193 781.007 972.774 777.727 972.293 776.311C971.863 775.052 976.641 773.994 981.752 772.749C982.396 772.597 983.04 772.435 983.683 772.268C989.448 770.804 993.263 766.489 998.198 762.723C1002.87 759.157 1008.89 746.241 1008.89 746.241L1022.44 745.631C1022.44 745.631 1016.74 757.207 1014.59 762.194C1013.33 765.131 1013.87 768.735 1014.41 771.505C1014.71 773.012 1015 774.552 1014.88 776.111L1014.9 776.106Z"
          fill="#FFB27D"/>
    <path d="M1001.24 779.758C994.154 778.938 996.038 780.73 986.115 780.869C976.193 781.007 972.774 777.727 972.293 776.311C971.863 775.052 976.641 773.994 981.752 772.749L981.814 772.845C981.814 772.845 988.204 776.273 996.371 775.453C1003.03 774.785 1009.83 772.006 1014.42 771.51C1014.71 773.016 1015.01 774.556 1014.89 776.115C1014.56 780.54 1008.32 780.587 1001.23 779.767L1001.24 779.758Z"
          fill="#233862"/>
    <path d="M1108.5 777.026C1108.18 781.45 1101.93 781.508 1094.85 780.692C1087.76 779.877 1089.65 781.67 1079.73 781.817C1069.81 781.965 1066.38 778.69 1065.9 777.274C1065.47 776.015 1070.25 774.952 1075.36 773.703C1076 773.546 1076.65 773.383 1077.29 773.221C1083.06 771.753 1086.87 767.433 1091.8 763.662C1096.46 760.091 1091.8 738.937 1091.8 738.937L1106.7 737.488C1106.7 737.488 1105.99 755.295 1106 763.395C1106 766.589 1107.47 769.66 1108.02 772.43C1108.32 773.936 1108.61 775.472 1108.49 777.031L1108.5 777.026Z"
          fill="#FFB27D"/>
    <path d="M1094.85 780.687C1087.76 779.872 1089.65 781.665 1079.73 781.813C1069.81 781.96 1066.38 778.685 1065.9 777.269C1065.47 776.01 1070.25 774.947 1075.36 773.698L1075.42 773.793C1075.42 773.793 1081.81 777.217 1089.98 776.387C1096.64 775.715 1103.43 772.926 1108.03 772.425C1108.32 773.932 1108.62 775.467 1108.5 777.026C1108.18 781.45 1101.93 781.507 1094.85 780.692V780.687Z"
          fill="#233862"/>
    <path d="M1064.99 411.473C1062.43 400.918 1066.15 396.007 1069.5 393.39C1071.1 389.504 1072.91 386.705 1074.77 385.652C1078.16 383.726 1082.22 383.516 1085.06 383.683C1084.33 382.929 1082.89 382.653 1082.89 382.653C1084.65 382.391 1088.58 384.136 1088.58 384.136C1113.08 374.7 1116.93 410.763 1116.41 419.14C1115.9 427.517 1115.97 437.386 1128.72 443.984C1153.03 456.581 1120.63 504.043 1120.63 504.043C1121.25 497.273 1090.01 461.544 1073.71 450.845C1069.74 445.005 1068.33 434.687 1068.23 433.872C1068.91 442.053 1070.31 446.645 1071.56 449.229C1064.14 442.392 1063.03 425.977 1065 411.473H1064.99Z"
          fill="#A9453D"/>
    <path d="M1074.67 451.374C1074.59 451.412 1082.54 455.541 1088.52 453.906C1094.15 452.371 1097.82 445.076 1097.75 445.062C1095.36 444.59 1094.68 441.314 1094.73 427.245L1093.65 427.455L1075.54 431.04C1075.54 431.04 1075.95 436.737 1075.97 442.106C1075.98 446.616 1075.7 450.888 1074.67 451.369L1074.67 451.374Z"
          fill="#FFB27D"/>
    <path d="M1075.54 431.045C1075.54 431.045 1075.95 436.742 1075.97 442.111C1086.1 441.825 1091.46 432.58 1093.65 427.455L1075.54 431.04V431.045Z"
          fill="#ED975D"/>
    <path d="M1001.85 753.417C1000.97 756.201 1002.96 759.066 1005.88 759.204L1012.96 759.533L1020.45 759.762C1022.32 759.82 1024.11 759.004 1025.29 757.55C1031.26 750.222 1049.66 725.788 1060.82 690.292C1061.13 689.296 1061.46 688.29 1061.81 687.27C1069.18 665.787 1084.46 638.821 1092.51 614.415C1093.79 610.529 1094.94 606.868 1095.97 603.406C1096.3 602.295 1096.62 601.208 1096.93 600.136C1102.86 579.525 1104.57 565.994 1106.16 551.539L1048.03 552.006C1048.03 552.006 1035.79 647.107 1001.85 753.417Z"
          fill="#2A4E96"/>
    <path d="M1056.17 518.608C1056.32 546.265 1052.11 558.132 1052.11 558.132C1052.11 558.132 1077 570.776 1106.58 561.47C1106.92 561.36 1131.07 555.848 1131.07 555.848C1130.57 554.728 1126.17 536.091 1125.69 535.061C1119.44 521.65 1114.7 515.771 1113.96 511.647C1112.58 503.952 1112.55 495.985 1113.24 488.476C1115.04 468.595 1120.41 452.089 1120.41 452.089C1112.35 450.254 1104.8 447.036 1096.42 443.889C1094.48 446.292 1088.59 448.804 1083.47 448.69C1077.58 448.561 1075.67 446.039 1075.98 443.283C1069.7 446.778 1064.68 450.077 1064.68 450.077C1059.35 459.346 1048.52 468.347 1047.74 482.564C1047.55 486.059 1056.16 517.831 1056.16 518.608H1056.17Z"
          fill="white"/>
    <path d="M1106.16 521.688C1108.7 525.283 1113.57 547.138 1125.69 549.889C1119.44 534.313 1114.7 527.481 1113.96 522.694C1112.58 513.754 1112.55 504.505 1113.24 495.78C1109.18 488.672 1106.15 483.794 1106.15 483.794C1105.83 482.645 1099.71 463.694 1097.74 480.633C1095.78 497.573 1103.32 517.669 1106.15 521.693L1106.16 521.688Z"
          fill="#5F9AA8"/>
    <path d="M1072.16 436.127C1072.16 436.127 1096.13 436.523 1096.15 421.586C1096.16 406.653 1099.27 396.646 1083.96 395.759C1068.65 394.877 1065.67 400.57 1064.46 405.552C1063.24 410.534 1065.92 435.636 1072.16 436.122V436.127Z"
          fill="#FFB27D"/>
    <path d="M1073.04 395.397C1073.04 395.397 1079.61 412.918 1089.68 415.507C1099.76 418.096 1104.13 415.397 1104.13 415.397C1104.13 415.397 1096.4 409.257 1094.8 398.544C1094.8 398.544 1078 387.054 1073.05 395.397H1073.04Z"
          fill="#A9453D"/>
    <path d="M1074.67 396.818C1074.67 396.818 1069.77 400.732 1068.57 404.532C1067.37 408.336 1066.84 416.165 1064.56 415.898C1064.56 415.898 1059.61 403.988 1065.17 397.251C1071.06 390.109 1074.67 396.818 1074.67 396.818Z"
          fill="#A9453D"/>
    <path d="M1034.43 537.803L1023.1 572.33L1029.56 574.919L1048.29 544.416L1034.43 537.803Z" fill="#FFB27D"/>
    <path d="M1064.96 448.046C1064.96 448.046 1051.61 453.343 1047.74 461.606C1043.88 469.868 1038.03 525.278 1035.69 530.966C1033.36 536.658 1031.61 541.159 1031.61 541.159C1031.61 541.159 1038.35 546.833 1045.12 547.247C1051.89 547.667 1064.96 448.042 1064.96 448.042V448.046Z"
          fill="#F99746"/>
    <path d="M1075.98 443.284C1075.98 443.284 1062.1 477.554 1061.69 484.486C1061.28 491.423 1060.06 597.895 1060.06 597.895C1060.06 597.895 1060.88 602.791 1051.5 600.751C1042.11 598.71 1039.67 596.669 1039.67 596.669C1039.67 596.669 1048.64 530.99 1046.19 508.143C1043.75 485.296 1064.96 448.037 1064.96 448.037L1075.98 443.279V443.284Z"
          fill="#F99746"/>
    <path d="M1012.96 759.538L1021.08 759.786C1022.54 759.829 1023.93 759.204 1024.86 758.084C1030.32 751.466 1049.37 726.703 1060.82 690.302C1061.13 689.305 1061.46 688.299 1061.81 687.279C1069.18 665.796 1084.46 638.83 1092.51 614.424C1093.79 610.538 1094.94 606.877 1095.97 603.416C1096.3 602.305 1096.62 601.218 1096.93 600.145L1088.37 593.651C1088.37 593.651 1062.67 635.264 1054.71 674.421C1047.8 708.433 1020.13 749.364 1012.96 759.543L1012.96 759.538Z"
          fill="#1E3D70"/>
    <path d="M1087.47 678.059C1087.33 696.076 1088.19 736.229 1090.38 755.858C1090.58 757.655 1092.1 759.009 1093.91 759.009H1099.97C1102.53 759.009 1104.44 758.99 1105.71 758.971C1106.82 758.957 1107.75 758.165 1107.96 757.088C1114 726.398 1118.31 700.905 1121.47 678.874C1124.11 660.432 1126.46 644.627 1128.27 631.016C1130.09 617.323 1131.36 605.852 1131.81 596.164C1131.88 594.638 1131.93 593.156 1131.96 591.716C1131.99 590.266 1132 588.86 1131.99 587.492L1081.76 582.595C1082.4 615.959 1087.56 666.988 1087.48 678.054L1087.47 678.059Z"
          fill="#2A4E96"/>
    <path d="M1099.97 759.009C1102.27 759.009 1104.05 758.995 1105.3 758.976C1106.64 758.957 1107.78 758.003 1108.04 756.692C1114.03 726.179 1118.33 700.81 1121.47 678.874C1124.11 660.432 1126.46 644.628 1128.27 631.016C1130.09 617.323 1131.36 605.852 1131.81 596.164L1113.38 607.006C1113.38 607.006 1125.14 611.154 1120.66 642.568C1116.17 673.977 1106.22 754.561 1099.98 759.009H1099.97Z"
          fill="#1E3D70"/>
    <path d="M1097.6 595.859C1097.6 595.859 1101.14 608.641 1113.38 607.006C1125.62 605.375 1143.02 598.033 1143.02 598.033C1143.02 598.033 1137.79 581.508 1131.29 559.796C1123.41 533.512 1113.66 499.628 1109.07 478.254C1107.78 472.266 1106.9 467.265 1106.57 463.684L1096.42 443.984C1096.42 443.984 1081.28 477.964 1080.46 486.531C1079.65 495.099 1097.6 595.864 1097.6 595.864V595.859Z"
          fill="#F99746"/>
    <path d="M1109.82 485.253L1096.42 443.984C1096.45 444.003 1113.34 449.01 1121.84 453.3C1121.84 453.3 1127.15 460.147 1130.44 475.942C1130.44 475.942 1133.91 513.864 1126.15 527.733C1126.15 527.733 1101.68 532.63 1062.51 519.166V510.193C1062.51 510.193 1105.35 512.439 1114.12 513.454L1109.82 485.253Z"
          fill="#FFB27D"/>
    <path d="M1098.14 504.477C1098.69 518.346 1101.95 545.274 1131.06 559.686C1131.13 559.725 1131.21 559.763 1131.29 559.796C1123.42 533.512 1113.67 499.628 1109.08 478.254C1103.73 486.24 1097.85 496.839 1098.15 504.477H1098.14Z"
          fill="#ED7D2B"/>
    <path d="M1096.42 443.984C1096.42 443.984 1121.26 445.734 1127.25 459.06C1133.23 472.385 1135.13 516.715 1127.52 529.769C1127.52 529.769 1117.03 532.754 1098.49 529.288C1098.26 529.245 1098.03 529.202 1097.8 529.159C1097.8 529.159 1091.89 514.675 1097.19 511.819C1097.19 511.819 1112.83 512.634 1111.2 507.466C1109.57 502.298 1096.42 443.979 1096.42 443.979V443.984Z"
          fill="#F99746"/>
    <path d="M1034.13 515.733L1034.86 518.084L1075.63 505.401C1075.63 505.401 1076.18 504.782 1075.91 503.962C1075.61 503.051 1074.9 503.051 1074.9 503.051L1034.14 515.733H1034.13Z"
          fill="#A9453D"/>
    <path d="M1031.18 517.96L1034.13 515.733L1034.86 518.088L1031.18 517.96Z" fill="#A9453D"/>
    <path d="M1024.71 571.386C1024.71 571.386 1014.37 577.103 1013.01 581.456C1011.65 585.808 1012.58 594.924 1014.22 594.791C1015.86 594.653 1018.31 584.993 1019.67 584.316C1021.03 583.634 1022.94 581.599 1022.94 583.091C1022.94 584.583 1021.58 587.306 1022.26 587.716C1022.94 588.126 1025.11 583.906 1026.61 583.091C1028.11 582.276 1028.74 575.544 1030.19 573.741C1031.65 571.935 1024.71 571.391 1024.71 571.391V571.386Z"
          fill="#FFB27D"/>
    <path d="M1062.51 510.188C1062.51 510.188 1053.26 504.491 1049.39 505.368C1045.51 506.245 1035.62 513.407 1040.38 514.956C1045.13 516.506 1048.98 514.88 1050.81 516.005C1052.64 517.13 1053.99 519.19 1062.51 519.161C1071.04 519.132 1062.51 510.188 1062.51 510.188Z"
          fill="#FFB27D"/>
    <path d="M65.1863 449C63.6367 446.01 99.0114 435.245 99.5692 464.752C99.5692 464.752 165.837 463.121 134.195 426.191C123.243 413.404 124.368 402.834 124.697 392.994C125.031 383.153 117.874 354.552 93.3468 357.431C93.3468 357.431 86.9242 354.819 78.909 358.976C60.6805 368.43 19.8416 459.884 65.1863 449Z"
          fill="#163560"/>
    <path d="M173.522 481.992C173.522 481.992 177.838 475.427 181.314 475.298C184.79 475.169 191.226 473.367 190.712 474.654C190.197 475.942 186.206 476.07 185.819 476.843C185.433 477.615 191.741 478.774 193.544 478.902C195.346 479.031 199.595 478.902 199.466 479.803C199.337 480.705 191.808 484.438 186.496 483.923C181.185 483.408 174.619 485.467 174.619 485.467L173.522 481.992Z"
          fill="#FFB27D"/>
    <path d="M111.141 484.113C111.141 484.113 113.487 488.757 117.74 494.087C122.866 500.505 130.767 507.923 140.694 509.387C145.433 510.088 150.068 509.067 154.331 507.175C154.34 507.175 154.345 507.175 154.345 507.175C166.394 501.825 175.458 489.525 175.458 489.525C177.585 483.732 174.109 479.803 174.109 479.803C174.109 479.803 149.772 485.277 147.455 484.118C145.138 482.96 131.62 444.017 128.402 439.121C125.178 434.229 114.212 431.688 114.212 431.688L111.151 484.118L111.141 484.113Z"
          fill="#B0D0FF"/>
    <path d="M117.74 494.092C122.866 500.509 130.767 507.928 140.694 509.392C145.434 510.093 150.068 509.072 154.331 507.179C153.859 507.241 141.824 508.729 137.027 500.147C132.135 491.389 126.843 477.486 119.571 482.121C116.434 484.123 116.572 489.091 117.745 494.092H117.74Z"
          fill="#98BAF4"/>
    <path d="M20.3515 746.77C20.3515 746.77 12.9276 753.545 14.3771 758.36C15.8266 763.175 22.5258 766.384 23.4318 772.267C24.3377 778.151 27.9615 781.359 31.2181 781.359H46.7621C46.7621 781.359 49.1605 777.216 43.3672 775.972C37.574 774.723 35.3854 767.81 35.7478 761.388C36.1102 754.97 35.2042 746.407 35.2042 746.407L22.8882 743.556L20.3515 746.765V746.77Z"
          fill="#233862"/>
    <path d="M83.2003 749.645C83.2003 749.645 80.5301 778.351 83.7867 779.953L125.508 779.867C125.508 779.867 125.508 775.052 118.809 773.984C112.109 772.916 100.337 768.992 98.3438 760.253C96.3507 751.514 83.2003 749.645 83.2003 749.645Z"
          fill="#233862"/>
    <path d="M53.4711 543.714C62.0585 524.462 67.3082 518.937 66.3069 512.963C65.5583 508.515 68.5813 430.043 68.5813 430.043C69.6016 429.729 71.6424 429.447 72.7581 429.199C76.2818 428.417 79.1951 425.943 80.4062 422.548C81.8652 418.458 83.0287 412.412 83 404.841L84.1015 405.056L102.592 408.717C102.592 408.717 102.173 414.534 102.158 420.017C102.158 420.065 102.158 420.107 102.158 420.155C102.134 424.918 105.258 429.118 109.835 430.439C112.171 431.111 114.203 431.688 114.203 431.688C114.203 431.688 120.992 451.074 122.289 470.983C123.586 490.898 109.94 499.547 122.394 539.338C135.106 579.977 48.7316 554.351 53.4759 543.714H53.4711Z"
          fill="#FFB27D"/>
    <path d="M102.592 408.713C102.592 408.713 102.172 414.529 102.158 420.012C91.8111 419.721 86.3421 410.281 84.1011 405.051L102.592 408.713Z"
          fill="#E8945B"/>
    <path d="M106.049 413.905C106.049 413.905 81.5646 414.31 81.5503 399.058C81.5312 383.811 78.3604 373.594 93.9903 372.688C109.62 371.787 112.662 377.599 113.907 382.691C115.151 387.783 112.414 413.404 106.044 413.905H106.049Z"
          fill="#FFB27D"/>
    <path d="M105.143 372.316C105.143 372.316 98.4389 390.204 88.154 392.851C77.8692 395.497 73.4062 392.741 73.4062 392.741C73.4062 392.741 81.2975 386.471 82.9329 375.534C82.9329 375.534 100.089 363.806 105.143 372.321V372.316Z"
          fill="#163560"/>
    <path d="M103.479 373.77C103.479 373.77 108.447 375.63 110.498 379.253C112.5 382.8 114.202 387.492 113.807 393.251C113.807 393.251 118.856 381.093 113.182 374.214C107.165 366.919 103.484 373.77 103.484 373.77H103.479Z"
          fill="#163560"/>
    <path d="M100.723 404.445C100.723 404.445 102.411 406.667 105.792 406.51C108.514 406.381 109.563 404.021 109.563 404.021C109.563 404.021 104.561 402.82 100.723 404.45V404.445Z"
          fill="#EBF3FA"/>
    <path d="M51.1105 464.752C51.1105 464.752 50.4906 473.515 51.1105 484.032C51.5253 491.003 58.5773 500.343 59.5786 502.65C62.0914 508.443 64.9189 509.387 64.9189 509.387L86.8237 514.755L94.5242 516.639L118.813 509.387C118.813 509.387 129.875 478.511 125.436 461.133C120.992 443.755 114.207 431.683 114.207 431.683C114.207 431.683 94.3859 451.088 68.5808 430.038L51.1105 464.752Z"
          fill="#B0D0FF"/>
    <path d="M57.5189 486.879C57.9338 493.849 58.5727 500.343 59.574 502.65C62.0868 508.443 64.9143 509.387 64.9143 509.387L86.819 514.755L96.3314 511.957C96.3314 511.957 64.571 507.146 68.0899 479.823L57.5142 486.874L57.5189 486.879Z"
          fill="#F2CCAA"/>
    <path d="M117.268 514.074C117.268 514.074 129.298 551.51 130.071 564.254C130.843 576.998 107.079 745.316 106.12 751.19C105.219 756.725 98.3437 760.253 98.3437 760.253C98.3437 760.253 95.1824 762.117 90.667 760.844C84.4065 759.075 82.4277 756.959 82.4277 756.959C82.4277 756.959 73.0679 636.918 78.8612 594.037C84.6544 551.157 84.7212 514.074 84.7212 514.074H117.268Z"
          fill="#ED7D2B"/>
    <path d="M66.3067 512.958C66.3067 512.958 47.959 537.574 46.2472 554.213C44.5355 570.852 43.5628 629.304 39.9199 645.523C36.2771 661.743 22.8882 692.962 22.8882 743.556C22.8882 743.556 24.2805 746.455 28.5765 748C29.9498 748.496 31.7903 748.973 33.5783 749.383C37.121 750.193 40.7591 748.462 42.3755 745.206C51.4254 726.984 80.2629 668.208 81.741 656.008C82.7853 647.373 91.8924 590.233 111.752 556.701C116.52 548.654 108.824 516.639 108.824 516.639L66.3067 512.958Z"
          fill="#F99746"/>
    <path d="M101.266 404.851C101.266 404.851 101.691 406.648 106.159 406.372C106.159 406.372 109.911 406.138 109.797 404.164C109.797 404.164 106.159 402.758 101.262 404.851H101.266Z"
          fill="white"/>
    <path d="M119.19 508.295C119.19 508.295 114.36 512.114 104.766 512.31C93.3086 512.538 64.9192 509.387 64.9192 509.387C64.9192 509.387 63.6557 512.91 63.7081 516.634C63.7081 516.634 98.3819 525.378 118.475 517.912C118.475 517.912 121.064 513.034 119.19 508.295Z"
          fill="#233862"/>
    <path d="M102.287 516.267C102.287 513.006 104.633 510.35 107.513 510.35C110.393 510.35 112.744 513.006 112.744 516.267C112.744 519.528 110.398 522.183 107.513 522.183C104.628 522.183 102.287 519.528 102.287 516.267ZM104.018 516.267C104.018 518.574 105.587 520.453 107.513 520.453C109.439 520.453 111.008 518.574 111.008 516.267C111.008 513.959 109.439 512.081 107.513 512.081C105.587 512.081 104.018 513.959 104.018 516.267Z"
          fill="white"/>
    <path d="M27.6028 515.07L63.1294 546.004L105.477 497.379L69.9505 466.444L27.6028 515.07Z" fill="#B5453C"/>
    <path d="M72.9294 515.18C72.9294 515.18 85.9463 516.701 85.9034 519.79C85.8605 522.879 82.6611 529.225 81.0542 529.507C79.4474 529.788 70.4595 520.925 70.4595 520.925L72.9294 515.18Z"
          fill="#FFB27D"/>
    <path d="M68.576 430.038C68.576 430.038 51.1963 431.259 44.5352 447.45C37.8742 463.641 25.2339 490.831 25.2339 495.403C25.2339 499.975 32.2954 514.078 70.2115 522.183C70.2115 522.183 74.1357 518.059 73.8973 514.798C73.8973 514.798 50.2283 494.469 50.2903 492.094C50.4095 487.599 54.1716 481.668 74.951 460.88C80.6012 455.231 68.576 430.043 68.576 430.043V430.038Z"
          fill="#B0D0FF"/>
    <path d="M270.585 780.478H270.418C269.445 780.478 268.668 779.677 268.687 778.709L271.309 665.043L279.034 664.142L272.444 778.714C272.387 779.701 271.567 780.473 270.58 780.473L270.585 780.478Z"
          fill="#B0D4FF"/>
    <path d="M225.564 780.478H225.397C224.424 780.478 223.647 779.677 223.666 778.709L226.289 665.043L234.013 664.142L227.424 778.714C227.366 779.701 226.546 780.473 225.559 780.473L225.564 780.478Z"
          fill="#95C0F4"/>
    <path d="M349.792 780.478H349.959C350.932 780.478 351.709 779.677 351.69 778.709L349.068 665.043L341.343 664.142L347.933 778.714C347.99 779.701 348.81 780.473 349.797 780.473L349.792 780.478Z"
          fill="#B0D4FF"/>
    <path d="M220.443 657.996V580.107C220.443 566.399 231.553 555.291 245.261 555.291H301.382C315.09 555.291 326.2 566.399 326.2 580.107V660.971L220.443 657.996Z"
          fill="#B0D4FF"/>
    <path d="M220.443 657.996H336.256V670.292H227.895C223.781 670.292 220.443 666.955 220.443 662.84V657.996Z"
          fill="#95C0F4"/>
    <path d="M349.239 657.996H267.266C264.222 657.996 261.754 660.464 261.754 663.508V664.78C261.754 667.824 264.222 670.292 267.266 670.292H349.239C352.283 670.292 354.751 667.824 354.751 664.78V663.508C354.751 660.464 352.283 657.996 349.239 657.996Z"
          fill="#B0D4FF"/>
    <path d="M336.059 638.587C328.02 652.58 317.907 657.982 317.907 657.982H275.838C275.838 657.982 342.191 627.917 336.059 638.587Z"
          fill="#233862"/>
    <path d="M303.75 746.842C302.654 748.101 302.515 749.502 303.059 750.999C303.059 751.004 303.059 751.014 303.068 751.018C304.07 753.788 307.388 756.887 311.236 759.977C311.727 760.372 312.166 760.735 312.547 761.069C312.648 761.154 312.748 761.245 312.843 761.331C312.919 761.398 312.996 761.469 313.067 761.536C316.658 764.845 315.308 765.603 321.759 772.32C329.117 779.972 334.18 780.111 335.62 779.415C336.841 778.819 334.362 774.761 331.62 770.199C331.486 769.979 331.358 769.755 331.219 769.531C330.852 768.926 330.49 768.311 330.127 767.7C326.914 762.208 327.739 759.634 328.502 751.462C329.121 744.82 338.829 714.369 338.829 714.369L324.735 711.942C324.735 711.942 320.491 736.191 315.814 739.929C313.31 741.917 310.511 741.945 308.108 743.419C307.937 743.519 307.77 743.628 307.608 743.733C306.239 744.639 304.852 745.574 303.75 746.832V746.842Z"
          fill="#FFB27D"/>
    <path d="M303.75 746.842C302.654 748.101 302.515 749.502 303.059 750.999C303.059 751.004 303.059 751.014 303.068 751.018C304.299 753.788 307.527 756.868 311.25 759.948C311.737 760.354 312.166 760.721 312.547 761.069C312.648 761.154 312.748 761.245 312.843 761.331C312.919 761.398 312.996 761.469 313.067 761.536C316.658 764.845 315.308 765.603 321.759 772.32C329.117 779.973 334.18 780.111 335.62 779.415C336.841 778.819 334.362 774.761 331.62 770.199C330.189 769.674 323.538 766.971 318.508 760.539C314.078 754.89 311.126 747.629 308.108 743.419C307.937 743.519 307.77 743.628 307.608 743.733C306.239 744.639 304.852 745.574 303.75 746.832V746.842Z"
          fill="#233862"/>
    <path d="M417.408 738.041C418.281 742.394 424.479 741.664 431.412 739.972C438.34 738.279 436.695 740.291 446.556 739.199C456.416 738.108 459.406 734.432 459.706 732.963C459.973 731.662 455.105 731.204 449.874 730.603C449.216 730.532 448.558 730.446 447.895 730.365C441.992 729.626 437.673 725.816 432.313 722.689C427.235 719.728 419.659 707.661 419.659 707.661L406.136 708.734C406.136 708.734 413.231 719.514 415.978 724.2C417.594 726.956 417.508 730.603 417.303 733.416C417.198 734.947 417.098 736.51 417.408 738.041Z"
          fill="#FFB27D"/>
    <path d="M431.412 739.972C438.34 738.279 436.695 740.291 446.555 739.199C456.416 738.108 459.405 734.432 459.706 732.963C459.973 731.662 455.105 731.204 449.874 730.603L449.826 730.703C449.826 730.703 443.914 734.894 435.703 735.094C429.013 735.257 421.928 733.34 417.308 733.416C417.203 734.947 417.103 736.51 417.413 738.041C418.285 742.394 424.484 741.664 431.417 739.972H431.412Z"
          fill="#233862"/>
    <path d="M365.579 651.569L352.934 685.587L336.426 730.002C336.426 730.002 331.949 730.436 327.658 729.201C323.71 728.062 319.175 725.073 319.175 725.073C319.175 725.073 323.757 677.382 332.307 650.005C334.5 642.978 336.956 637.295 339.664 634.096C352.919 618.434 365.574 651.569 365.574 651.569H365.579Z"
          fill="#233862"/>
    <path d="M352.723 597.542C344.441 594.872 320.815 598.3 297.084 602.944L292.116 594.748L240.859 590.743C240.859 590.743 223.946 628.251 233.206 652.146C234.565 655.66 237.273 657.91 241.879 657.987H242.628C242.628 657.987 273.134 657.967 283.042 657.967C308.533 657.967 336.989 640.446 340.674 639.712C346.701 638.506 349.109 650.559 355.136 663.207C361.163 675.861 411.777 719.242 411.777 719.242C411.777 719.242 419.553 719.318 422.767 718.112C426.224 716.815 427.488 715.132 427.488 715.132C427.488 715.132 371.405 603.559 352.723 597.532V597.542Z"
          fill="#2B478B"/>
    <path d="M290.104 445.51C283.538 442.063 273.544 441.596 271.923 441.377C252.498 438.769 240.811 466.989 240.12 475.542C238.851 491.304 230.512 493.707 218.778 503.58C195.242 523.371 202.146 546.37 215.016 554.919C222.735 560.044 236.348 554.919 236.348 554.919C236.539 555.052 273.568 534.222 291.82 524.172C319.185 520.282 306.84 454.302 290.104 445.515V445.51Z"
          fill="#233862"/>
    <path d="M276.519 515.614C276.6 515.667 267.536 518.761 261.481 516.077C255.783 513.559 251.463 504.181 251.549 504.176C254.142 504.057 256.989 501.793 259.182 486.917L260.289 487.313L278.851 493.993C278.851 493.993 277.506 499.948 276.634 505.621C275.899 510.384 275.508 514.942 276.519 515.614Z"
          fill="#FFB27D"/>
    <path d="M278.846 493.993C278.846 493.993 277.502 499.948 276.629 505.621C265.968 503.7 261.781 493.077 260.279 487.313L278.842 493.993H278.846Z"
          fill="#ED975D"/>
    <path d="M281.612 499.905C281.612 499.905 256.212 496.496 258.577 480.715C260.942 464.934 259.259 453.863 275.575 455.37C291.892 456.881 294.133 463.375 294.624 468.834C295.115 474.293 288.277 500.386 281.607 499.905H281.612Z"
          fill="#FFB27D"/>
    <path d="M293.699 460.18C293.699 460.18 277.439 474.192 266.382 475.318C255.325 476.448 251.134 472.896 251.134 472.896C251.134 472.896 257.652 467.484 261.576 458.75C262.73 456.175 265.176 454.411 267.989 454.168C275.885 453.486 290.857 453.177 293.704 460.18H293.699Z"
          fill="#233862"/>
    <path d="M283.538 458.926C283.538 458.926 288.979 464.185 290.69 468.085C292.345 471.847 292.841 480.853 291.525 484.429C291.525 484.429 299.998 467.952 295.201 459.947C290.113 451.456 283.538 458.926 283.538 458.926Z"
          fill="#233862"/>
    <path d="M297.904 553.026C297.137 604.436 297.694 593.694 292.068 598.572C290.714 599.745 286.904 600.445 281.888 600.779C266.125 601.823 238.408 599.23 237.354 596.317C233.716 586.238 236.286 583.105 233.249 567.672C232.934 566.032 232.543 564.254 232.08 562.318C229.549 551.72 227.088 548.111 236.062 531.085C244.201 515.662 252.655 503.142 253.418 503.595C274.889 516.339 276.619 505.626 276.619 505.626C276.619 505.626 298.271 527.953 297.895 553.031L297.904 553.026Z"
          fill="white"/>
    <path d="M352.938 685.587L336.431 730.003C336.431 730.003 331.953 730.436 327.662 729.202C323.714 728.062 319.18 725.073 319.18 725.073C319.18 725.073 323.762 677.382 332.311 650.006L352.933 685.587H352.938Z"
          fill="#2B478B"/>
    <path d="M276.629 505.621C276.629 505.621 298.725 509.368 301.319 518.88C303.912 528.392 319.18 584.312 319.18 584.312C319.18 584.312 307.946 586.328 302.759 581.141C297.571 575.954 284.702 533.007 284.702 533.007L276.625 505.626L276.629 505.621Z"
          fill="white"/>
    <path d="M281.893 600.779C266.13 601.823 238.413 599.23 237.359 596.317C233.721 586.238 236.291 583.105 233.253 567.672L240.859 546.261C240.859 546.261 239.6 570.104 246.633 576.373C253.656 582.643 275.423 588.479 278.841 593.718C280.491 596.231 281.574 598.753 281.888 600.779H281.893Z"
          fill="#EBF3FF"/>
    <path d="M263.832 590.748C263.832 590.748 279.385 587.287 281.893 588.664C284.401 590.042 290.538 595.072 291.305 596.822C292.073 598.572 285.717 595.492 283.653 594.939C282.313 594.581 278.789 595.802 277.044 596.383C269.701 598.829 265.205 597.57 265.205 597.57L263.832 590.743V590.748Z"
          fill="#FFB27D"/>
    <path d="M253.413 503.581C253.413 503.581 232.529 504.868 225.3 514.947C215.125 529.14 194.937 589.628 206.504 597.695C219.536 606.777 265.806 600.069 265.806 600.069C265.806 600.069 267.346 592.875 265.205 589.389C263.064 585.909 228.247 580.283 226.64 578.676C225.033 577.07 246.728 547.343 246.728 542.523C246.728 537.703 253.418 503.571 253.418 503.571L253.413 503.581Z"
          fill="white"/>
    <path d="M282.646 592.998C282.646 592.998 285.903 597.203 286.976 597.704C288.044 598.205 288.735 598.081 288.735 598.081L286.537 594.128L282.646 592.998Z"
          fill="#FFB27D"/>
    <path d="M281.893 588.669L291.367 593.27C291.367 593.27 290.962 593.928 289.799 593.875C288.63 593.823 285.688 592.746 285.688 592.746L281.893 588.669Z"
          fill="#FFB27D"/>
    <path d="M286.971 604.14H361.921L384.47 548.077H309.634L286.971 604.14Z" fill="#F99746"/>
    <path d="M362.799 601.957H263.832V604.14H361.921L362.799 601.957Z" fill="#ED7D2B"/>
    <path d="M343.001 576.111C343.569 574.142 342.429 572.545 340.455 572.545C338.481 572.545 336.431 574.142 335.864 576.111C335.296 578.08 336.436 579.677 338.41 579.677C340.384 579.677 342.439 578.08 343.001 576.111Z"
          fill="white"/>
    <path d="M678.424 782.553H678.643C679.926 782.553 680.961 781.432 680.932 780.073L677.466 620.928L667.248 619.665L675.959 780.083C676.035 781.466 677.118 782.548 678.424 782.548V782.553Z"
          fill="#78ACEA"/>
    <path d="M264.203 782.553H263.984C262.701 782.553 261.667 781.432 261.695 780.073L265.162 620.928L275.38 619.665L266.669 780.083C266.592 781.466 265.51 782.548 264.203 782.548V782.553Z"
          fill="#78ACEA"/>
    <path d="M253.614 604.656H690.731C694.307 604.656 697.215 607.56 697.215 611.14V617.381C697.215 620.957 694.311 623.865 690.731 623.865H253.614C250.037 623.865 247.129 620.962 247.129 617.381V611.145C247.129 607.569 250.033 604.661 253.614 604.661V604.656Z"
          fill="#78ACEA"/>
    <path d="M158.35 331.898C156.7 291.034 190.955 272.879 225.976 272.879C260.998 272.879 299.115 281.952 302.419 336.289C304.545 371.246 285.907 392.753 232.242 392.753C214.142 392.753 200.076 389.897 189.305 384.81L162.479 408.643L175.663 375.699C163.986 364.843 159.065 349.529 158.355 331.893L158.35 331.898Z"
          fill="#DFEDFB"/>
    <path d="M1254.39 782.375C1254.39 782.375 1255.37 774.7 1257.65 770.137C1259.94 765.574 1274.46 768.478 1274.46 768.478C1274.46 768.478 1277.36 770.966 1277.99 782.585L1254.39 782.375Z"
          fill="#233862"/>
    <path d="M1204.9 782.275C1208.32 780.192 1206.37 764.654 1206.37 764.654C1206.37 764.654 1190.47 751.934 1188.28 761.674C1186.09 771.415 1173.18 775.787 1165.82 776.979C1160.74 777.803 1159.17 780.612 1158.68 782.275H1204.9H1204.9Z"
          fill="#233862"/>
    <path d="M1237.84 669.262C1237.19 672.828 1236.78 675.756 1236.67 677.849C1235.2 706.684 1212.4 772.606 1208.32 774.146C1202.01 776.526 1192.08 771.467 1186.88 769.813C1184.73 769.126 1183.27 766.952 1183.75 764.749C1195.04 712.858 1199.19 638.139 1200.7 593.904C1201.46 571.62 1205.29 556.23 1205.29 556.23C1205.29 556.23 1260.88 541.398 1261.21 560.159C1261.5 576.76 1242.8 641.872 1237.84 669.262H1237.84Z"
          fill="#213F7A"/>
    <path d="M1237.84 669.262L1200.7 593.9C1201.47 571.615 1205.29 556.225 1205.29 556.225C1205.29 556.225 1260.89 541.393 1261.22 560.154C1261.51 576.755 1242.8 641.867 1237.84 669.258V669.262Z"
          fill="#233862"/>
    <path d="M1225.47 560.221L1254.86 773.212C1254.86 773.212 1267.77 776.325 1277.81 773.837C1277.81 773.837 1286.41 660.561 1285.69 633.176C1284.98 605.79 1291.87 559.896 1284.12 554.833C1276.37 549.77 1225.47 560.225 1225.47 560.225V560.221Z"
          fill="#213F7A"/>
    <path d="M1289.85 556.673C1289.99 558.6 1288.76 560.349 1286.91 560.888C1282.81 562.08 1278.08 562.905 1268.96 564.793C1260.4 566.571 1248.88 568.144 1234.73 568.23C1212.22 568.373 1203.69 560.616 1203.69 560.616C1202.72 560.635 1204.2 555.925 1205.54 533.522C1205.99 525.931 1206.42 516.315 1206.74 504.157C1207.03 493.22 1207.22 480.224 1207.24 464.81C1207.26 446.263 1235.97 426.315 1236.5 426.315V426.325C1236.5 428.995 1240.71 433.925 1247.19 434.349C1254.89 434.854 1264.32 431.021 1264.32 426.592C1264.32 426.549 1278.23 448.838 1283.17 472.591C1285.67 484.548 1284.66 484.224 1289.85 556.673Z"
          fill="#B0D0FF"/>
    <path d="M1236.5 426.315C1236.5 426.315 1209.81 426.087 1203.38 435.098C1196.96 444.108 1182.87 492.572 1190.22 508.696C1197.57 524.821 1211.32 502.026 1218.96 492.148C1226.59 482.269 1236.5 426.315 1236.5 426.315Z"
          fill="#B0D0FF"/>
    <path d="M1236.23 422.244L1236.24 425.004C1236.24 425.004 1235.49 433.634 1246.11 434.892C1256.74 436.156 1264.63 433.281 1264.34 426.62C1263.38 421.467 1262.49 416.17 1262.42 411.903C1262.4 410.315 1262.5 408.637 1262.8 406.734L1242.2 406.324L1236.14 407.316L1236.22 422.244H1236.23Z"
          fill="#FFB27D"/>
    <path d="M1236.14 407.316L1236.22 422.244C1238.41 423.259 1240.87 423.879 1243.64 423.879C1253.11 423.879 1259.23 416.942 1262.42 411.903C1262.4 410.315 1262.5 408.637 1262.8 406.734L1242.2 406.324L1236.14 407.316H1236.14Z"
          fill="#E2915A"/>
    <path d="M1264.38 403.426C1261.99 416.284 1245.4 415.86 1238.23 415.054C1236.22 414.83 1234.95 414.573 1234.95 414.573C1232.67 413.967 1231.41 410.382 1230.81 405.69C1229.64 396.403 1231.12 382.767 1232.69 379.277C1235.05 374.028 1239.5 368.355 1256.21 372.45C1272.93 376.55 1267.46 386.958 1264.39 403.431L1264.38 403.426Z"
          fill="#FFB27D"/>
    <path d="M1209.2 462.435C1209.2 462.435 1198.88 485.234 1199.18 492.066C1199.18 492.066 1204.29 491.89 1209.2 493.354C1217.27 495.761 1209.2 462.435 1209.2 462.435Z"
          fill="#98BAF4"/>
    <path d="M1227.56 367.034C1227.56 367.034 1234.91 366.467 1243.59 362.695C1250.63 359.635 1259.51 363.005 1262.39 364.526C1262.32 364.064 1262.13 363.43 1261.69 362.791C1261.69 362.791 1262.98 363.706 1263.18 364.994C1263.31 365.094 1263.37 365.16 1263.34 365.184C1263.34 365.184 1264.81 364.917 1265.75 365.342C1265.75 365.342 1265.09 365.246 1264.85 365.671C1264.83 365.713 1264.79 365.752 1264.75 365.79C1275.73 371.096 1276.75 388.451 1273.21 392.465C1268.96 397.295 1262.54 408.227 1262.54 408.227C1262.54 408.227 1262 405.605 1262.78 401.352C1263.55 397.099 1259.88 397.099 1255.24 395.168C1250.6 393.237 1254.47 387.826 1250.41 384.541C1246.35 381.256 1231.47 383.187 1231.66 380.674C1226.14 378.662 1227.57 367.601 1227.57 367.039L1227.56 367.034Z"
          fill="#233862"/>
    <path d="M1267.74 505.14C1263.38 522.637 1216.25 531.681 1205.54 533.522C1205.99 525.931 1206.42 516.315 1206.74 504.157L1267.74 505.14Z"
          fill="#98BAF4"/>
    <path d="M1257.4 510.827C1257.84 510.827 1267.88 509.33 1269.67 508.434C1271.46 507.538 1279.68 495.862 1274.3 492.867C1268.92 489.873 1254.48 501.845 1254.48 501.845L1257.4 510.827Z"
          fill="#FFB27D"/>
    <path d="M1196.4 514.298C1196.4 514.298 1235.19 516.401 1261.22 510.827C1261.22 510.827 1261.87 503.309 1253.69 499.967C1253.69 499.967 1213.12 491.37 1203.37 493.764C1193.63 496.157 1196.4 514.293 1196.4 514.293V514.298Z"
          fill="#B0D0FF"/>
    <path d="M1285.48 483.861C1277.43 493.568 1266.9 501.487 1255.3 503.347C1255.21 503.199 1251.79 498.012 1252.43 490.393C1252.73 486.865 1253.89 482.817 1256.66 478.502C1257.51 477.177 1258.26 475.628 1258.94 473.906C1265.27 457.744 1264.33 426.597 1264.33 426.597C1264.33 426.597 1291.23 429.414 1299.61 441.386C1304.75 448.719 1298.2 468.524 1285.48 483.866L1285.48 483.861Z"
          fill="#B0D0FF"/>
    <path d="M1238.23 415.049C1236.21 414.825 1234.94 414.568 1234.94 414.568C1232.67 413.962 1231.4 410.377 1230.81 405.686C1235.08 406.735 1237.03 410.034 1237.84 411.436C1238.21 412.065 1238.29 413.481 1238.23 415.049Z"
          fill="#E2915A"/>
    <path d="M1227.39 422.325C1227.39 422.325 1218.1 406.997 1225.33 406.329C1232.55 405.662 1235.45 410.553 1236.5 412.346C1237.54 414.143 1236.23 422.244 1236.23 422.244L1227.39 422.325H1227.39Z"
          fill="#FFB27D"/>
    <path d="M1262.8 489.873C1262.52 491.819 1261.94 493.602 1261.22 495.194C1258.95 500.234 1255.3 503.342 1255.3 503.342C1231.17 492.448 1226.29 455.05 1225.47 434.506C1225.14 426.249 1225.47 420.709 1225.47 420.709C1236.36 417.104 1239.42 423.369 1239.42 423.369C1239.42 423.369 1252.27 453.93 1258.94 473.902C1261.49 481.544 1263.14 487.637 1262.81 489.873H1262.8Z"
          fill="#B0D0FF"/>
    <path d="M1285.48 483.861C1277.43 493.568 1266.9 501.487 1255.3 503.347C1231.17 492.453 1226.29 455.055 1225.47 434.511C1225.47 434.511 1236.89 475.918 1252.43 490.393C1255.24 493.01 1258.19 494.751 1261.22 495.199C1261.22 495.199 1280.82 489.659 1284.93 484.448C1285.22 484.071 1285.4 483.89 1285.48 483.866L1285.48 483.861Z"
          fill="#98BAF4"/>
    <path d="M545.995 604.657H471.044L448.496 548.594H523.332L545.995 604.657Z" fill="#2B478B"/>
    <path d="M470.167 602.469H569.134V604.657H471.044L470.167 602.469Z" fill="#2B478B"/>
    <path d="M489.965 576.623C489.397 574.654 490.537 573.057 492.511 573.057C494.485 573.057 496.535 574.654 497.102 576.623C497.67 578.592 496.53 580.189 494.556 580.189C492.582 580.189 490.527 578.592 489.965 576.623Z"
          fill="white"/>
    <path d="M1384 781.13V781.607C1384 782.37 1383.29 782.995 1382.44 782.995H7.55917C6.70091 782.995 6 782.365 6 781.607V781.13C6 780.368 6.70568 779.738 7.55917 779.738H1382.44C1383.29 779.738 1384 780.368 1384 781.13Z"
          fill="#2E3552"/>
</svg>
