<svg width="1411" height="807" viewBox="0 0 1411 807" fill="none" xmlns="http://www.w3.org/2000/svg">
    <path opacity="0.5"
          d="M1383.63 800.872C1383.52 801.088 1383.41 801.292 1383.3 801.497C1382.51 802.983 1381.7 804.489 1380.87 806L111.504 805.595C111.504 805.595 110.268 804.141 108.057 801.349C107.931 801.19 107.805 801.031 107.674 800.862C102.005 793.67 90.5905 778.538 77.2313 757.203C77.2313 757.198 77.2265 757.192 77.2216 757.182C41.7751 700.547 -7.34582 600.248 0.921816 488.924C3.25421 457.503 10.1544 425.2 23.2275 392.754C62.8781 294.344 181.176 228.007 287.743 226.676C328.989 226.153 368.49 235.379 400.978 256.253C406.744 259.952 413.988 262.81 422.416 264.752C429.52 266.396 437.463 267.395 446.084 267.712C515.295 270.289 627.86 229.083 694.622 125.423C730.074 70.3764 784.499 34.3393 847.057 15.5703C849.971 14.6994 852.91 13.8593 855.853 13.0653C870.08 9.20807 884.69 6.2165 899.567 4.07528C902.244 3.69108 904.935 3.33251 907.631 3.00979C973.641 -5.08384 1044.35 3.28641 1109.19 26.425C1117.73 29.4678 1126.17 32.7718 1134.49 36.332C1256.53 88.541 1351.47 195.146 1343.12 344.002C1342.79 349.888 1342.3 355.841 1341.64 361.86C1340.39 373.324 1338.53 385.024 1336.04 396.959C1334.57 403.993 1332.88 411.108 1330.96 418.295C1280.66 606.994 1481.74 615.513 1383.63 800.872Z"
          fill="#F0FBFF"/>
    <path d="M1382.14 801.878L413 802L421.357 480.003V392.513H457.605V324.186H529.919V382.181H552.003V274.921H556.807V267.423H557.667V274.921H575.109V267.423H575.974V274.921H600.664V267.423H601.53V274.921H617.074V267.423H617.93V274.921H624.313V375.048H648.722V358.852L677.507 358.995V332.752H683.296V327.565H684.066V332.752H706.297V332.763H710.744V327.56H711.51V332.763H716.87V384.941H751.139V404.146H770.193V392.994H787.863V348.721H796.676V328.067H798.008V348.721H819.121V310.01H821.195V348.721H835.164V348.181H835.14V343.269H835.164V338.621H835.14V330.88H835.164V325.942H835.14V318.2H835.164V313.262H835.14V305.521H835.164V300.18H835.14V292.45H835.164V285.65H835.14V277.919H835.164V272.79H839.326V267H839.992V272.79H870.832V267H871.493V272.79H877.124V313.262L881.081 313.288V313.262H881.048V305.521H881.081V300.18H881.048V292.45H881.081V287.13H881.048V279.389H881.081V279.368H918.475V279.389H924.901C925.229 279.595 925.567 279.801 925.905 280.008V331.62H932.787V324.181H1011.72V382.176H1035.82V274.916H1041.06V267.418H1042.01V274.916H1061.04V267.418H1061.98V274.916H1088.93V267.418H1089.87V274.916H1106.84V267.418H1107.78V274.916H1114.75V375.043H1141.39V358.847L1172.8 358.989V332.752H1179.13V327.56H1179.97V332.752H1204.22L1209.08 332.757V327.554H1209.91V332.757H1215.76V384.941H1253.16V404.141H1273.96V392.989H1293.25V348.71H1302.86V328.062H1304.32V348.71H1327.37V310.005H1329.63V348.71H1340.96C1339.74 360.544 1337.91 372.621 1335.47 384.941C1334.03 392.201 1332.38 399.546 1330.49 406.964C1281.16 601.746 1478.39 610.539 1382.15 801.873L1382.14 801.878Z"
          fill="#E5F8FF"/>
    <path d="M422 335.929V800H132.508C132.392 799.863 132.275 799.725 132.155 799.579C126.935 793.359 116.423 780.273 104.121 761.821C104.121 761.817 104.117 761.812 104.112 761.803C71.4699 712.819 26.2354 626.077 33.8489 529.801C35.9967 502.627 42.351 474.69 54.3898 446.63C90.9034 361.522 199.842 304.152 297.978 303C335.608 303.412 371.474 311.47 401.258 328.58C406.831 331.778 413.842 334.25 421.996 335.929H422Z"
          fill="#E5F8FF"/>
    <path d="M891.559 103.633V185.989C891.559 192.41 889.993 197.648 888.087 197.648H887.59C885.679 197.648 884.122 192.41 884.122 185.989V104.565C886.592 104.229 889.076 103.915 891.563 103.633H891.559Z"
          fill="#9FC1F4"/>
    <path d="M885.898 177.834C858.791 177.834 836.82 201.098 836.82 229.802H934.977C934.977 201.103 913.002 177.834 885.898 177.834Z"
          fill="#FF9843"/>
    <path d="M889.809 178.466C888.4 178.157 886.959 177.995 885.5 177.995C867.839 177.995 853.524 201.188 853.524 229.797H862.147C862.147 203.558 874.193 181.876 889.814 178.466H889.809Z"
          fill="#FFC48A"/>
    <path d="M809.117 724.876C809.117 724.876 796.056 709.619 808.312 699.927C808.312 699.927 817.266 694.501 824.564 694.94C824.564 694.94 814.218 712.307 817.566 714.037C820.913 715.766 827.696 693.851 827.696 693.851C827.696 693.851 848.069 691.87 854.62 695.029C854.62 695.029 837.205 709.301 840.874 710.152C844.543 711.003 863.355 696.992 863.355 696.992C863.355 696.992 882.314 700.223 881.303 711.805C880.291 723.388 873.758 726.964 870.886 726.654C868.013 726.345 851.215 719.924 850.853 722.281C850.486 724.638 860.598 732.336 867.677 732.699C867.677 732.699 854.311 747.463 845.425 743.202C836.543 738.941 835.782 732.188 830.247 729.657C824.707 727.125 819.982 727.129 822.268 729.715C824.555 732.3 834.578 734.809 837.746 740.419C840.914 746.029 843.756 749.811 834.565 748.426C825.374 747.042 810.433 740.307 809.775 732.596L809.117 724.885V724.876Z"
          fill="#77A4E5"/>
    <path d="M871.986 712.119C871.986 712.119 820.487 710.129 809.117 724.88C809.117 724.88 806.603 732.421 798.861 739.29L797.653 742.583C797.653 742.583 806.576 733.16 809.771 732.591C809.771 732.591 804.777 714.319 871.986 712.119Z"
          fill="#77A4E5"/>
    <path d="M798.862 739.29C798.862 739.29 787.809 747.476 787.04 762.102L789.044 762.281C789.044 762.281 792.575 747.158 798.956 741.244C805.336 735.329 798.862 739.29 798.862 739.29Z"
          fill="#77A4E5"/>
    <path d="M763.449 705.689C763.449 705.689 784.225 694.039 774.528 678.227C774.528 678.227 766.774 668.517 758.46 666.021C758.46 666.021 762.894 689.599 758.46 690.154C754.025 690.71 755.412 663.525 755.412 663.525C755.412 663.525 733.527 652.982 724.94 653.815C724.94 653.815 738.516 676.837 734.082 676.286C729.647 675.731 714.411 652.431 714.411 652.431C714.411 652.431 691.971 648.268 688.373 661.585C684.771 674.902 690.588 681.556 693.913 682.389C697.237 683.223 718.568 682.945 718.013 685.718C717.458 688.492 703.054 692.932 695.022 690.437C695.022 690.437 703.887 712.352 715.521 711.241C727.155 710.129 730.757 702.92 737.961 702.364C745.165 701.809 750.428 703.753 746.826 705.694C743.223 707.634 731.034 706.33 725.217 711.281C719.4 716.232 714.689 719.284 725.495 721.506C736.301 723.724 755.69 722.339 759.569 714.014L763.449 705.694V705.689Z"
          fill="#77A4E5"/>
    <path d="M698.629 665.743C698.629 665.743 756.804 684.607 763.453 705.689C763.453 705.689 763.176 715.121 768.993 725.938V730.1C768.993 730.1 762.899 715.954 759.574 714.01C759.574 714.01 772.595 695.701 698.629 665.743Z"
          fill="#77A4E5"/>
    <path d="M768.993 725.938C768.993 725.938 777.965 739.581 772.85 756.187L770.541 755.564C770.541 755.564 772.783 737.274 768.089 728.075C763.395 718.876 768.993 725.938 768.993 725.938Z"
          fill="#77A4E5"/>
    <path d="M796.504 689.621C796.504 689.621 769.114 674.261 781.898 653.421C781.898 653.421 792.123 640.624 803.077 637.331C803.077 637.331 797.233 668.414 803.077 669.144C808.921 669.874 807.095 634.042 807.095 634.042C807.095 634.042 835.943 620.147 847.264 621.245C847.264 621.245 829.37 651.593 835.214 650.863C841.058 650.132 861.14 619.417 861.14 619.417C861.14 619.417 890.718 613.932 895.465 631.483C900.213 649.034 892.543 657.812 888.163 658.91C883.782 660.008 855.663 659.64 856.393 663.297C857.122 666.953 876.112 672.805 886.699 669.511C886.699 669.511 875.016 698.399 859.677 696.938C844.338 695.477 839.595 685.969 830.099 685.239C820.604 684.509 813.668 687.067 818.416 689.626C823.164 692.184 839.232 690.463 846.897 696.992C854.562 703.52 860.773 707.544 846.53 710.47C832.287 713.396 806.728 711.568 801.614 700.599L796.504 689.63V689.621Z"
          fill="#9FC1F4"/>
    <path d="M881.956 636.963C881.956 636.963 805.269 661.827 796.508 689.621C796.508 689.621 796.875 702.055 789.205 716.313V721.797C789.205 721.797 797.237 703.148 801.622 700.59C801.622 700.59 784.457 676.457 881.961 636.963H881.956Z"
          fill="#9FC1F4"/>
    <path d="M789.201 716.313C789.201 716.313 777.374 734.294 784.118 756.187L787.16 755.367C787.16 755.367 784.207 731.256 790.396 719.131C796.584 707.006 789.201 716.313 789.201 716.313Z"
          fill="#9FC1F4"/>
    <path d="M795.581 803.656C825.208 803.656 849.228 779.603 849.228 749.936H741.93C741.93 779.603 765.95 803.656 795.577 803.656H795.581Z"
          fill="#9FC1F4"/>
    <path d="M808.782 803.244C806.598 803.517 804.374 803.656 802.115 803.656C772.488 803.656 748.468 779.603 748.468 749.936H761.798C761.798 777.345 782.296 799.959 808.782 803.248V803.244Z"
          fill="#AFCDFB"/>
    <path d="M850.45 749.936H740.172V751.585H850.45V749.936Z" fill="#9FC1F4"/>
    <path d="M1185.83 801.017L1133.11 581.917L1136.8 573.292L1189.02 800.99C1189.15 801.572 1188.71 802.128 1188.11 802.128H1187.24C1186.57 802.128 1185.98 801.666 1185.82 801.012L1185.83 801.017Z"
          fill="#77A4E5"/>
    <path d="M947.915 802.132C946.832 802.132 946.009 801.16 946.184 800.089L961.711 705.85H968.364L949.848 800.542C949.669 801.465 948.859 802.132 947.915 802.132Z"
          fill="#77A4E5"/>
    <path d="M1096.86 802.132C1095.78 802.132 1094.95 801.16 1095.13 800.089L1110.65 705.85H1117.31L1098.79 800.542C1098.61 801.465 1097.8 802.132 1096.86 802.132Z"
          fill="#77A4E5"/>
    <path d="M1132.97 706.047H947.544L985.959 464.871H1171.39L1132.97 706.047Z" fill="#F5FBFF"/>
    <path d="M1146.85 704.206H933.883V711.299H1146.85V704.206Z" fill="#77A4E5"/>
    <path d="M1059.4 515.333C1059.26 517.242 1058.98 519.119 1058.56 520.948C1054.7 538.185 1039.37 551.39 1022.05 551.421C1002.89 551.453 988.541 535.353 990.004 515.454C991.467 495.555 1008.18 479.402 1027.35 479.371C1031.37 479.362 1035.17 480.065 1038.67 481.369C1040.24 481.952 1041.75 482.655 1043.19 483.466C1046.29 485.227 1049.05 487.499 1051.38 490.187C1052.68 491.679 1053.84 493.306 1054.85 495.035C1055.44 496.039 1055.98 497.079 1056.46 498.15C1057.81 501.134 1058.74 504.373 1059.19 507.792C1059.42 509.504 1059.51 511.269 1059.49 513.066C1059.48 513.814 1059.45 514.572 1059.39 515.333H1059.4Z"
          fill="#BDD1F9"/>
    <path d="M1056.46 498.15L1024.71 515.391C1024.71 515.391 1037.81 492.284 1043.19 483.462C1046.29 485.223 1049.05 487.494 1051.38 490.183C1052.68 491.675 1053.84 493.301 1054.85 495.031C1055.44 496.035 1055.98 497.074 1056.46 498.145V498.15Z"
          fill="white"/>
    <path d="M1059.76 493.785L1030.75 509.535C1030.75 509.535 1042.72 488.426 1047.63 480.37C1050.47 481.979 1052.99 484.053 1055.12 486.509C1056.3 487.875 1057.36 489.358 1058.29 490.94C1058.82 491.854 1059.32 492.804 1059.76 493.785Z"
          fill="#F99746"/>
    <path d="M1118.21 687.712L965.582 687.703L981.033 599.522L1133.66 599.531L1118.21 687.712ZM966.817 686.811L1117.29 686.82L1132.43 600.414L981.959 600.405L966.817 686.811Z"
          fill="#BDD1F9"/>
    <path d="M1109.11 675.623L973.743 675.614C973.743 675.614 997.754 662.718 1004.34 663.395C1010.93 664.072 1020.4 669.292 1026.48 669.493C1032.57 669.695 1039.16 651.396 1045.94 652.26C1052.71 653.121 1055.26 669.31 1058.77 667.728C1062.28 666.146 1072.82 665.461 1078.88 667.728C1084.95 669.995 1093.79 660.523 1099.13 660.819C1104.46 661.114 1109.1 675.619 1109.1 675.619L1109.11 675.623Z"
          fill="#F99746"/>
    <path d="M1006.3 649.702H980.442L980.683 648.331H1006.53L1006.3 649.702Z" fill="#F99746"/>
    <path d="M1005.78 652.637H979.927L980.169 651.261L1006.02 651.266L1005.78 652.637Z" fill="#F99746"/>
    <path d="M981.494 631.411L1116.86 631.42C1116.86 631.42 1097.37 618.525 1090.54 619.197C1083.72 619.874 1072.42 625.089 1066.27 625.291C1060.11 625.492 1059.93 607.193 1052.85 608.053C1045.77 608.914 1037.55 625.103 1034.59 623.521C1031.64 621.939 1021.35 621.254 1014.48 623.521C1007.62 625.788 1002.1 616.316 996.658 616.612C991.217 616.907 981.494 631.411 981.494 631.411Z"
          fill="#BDD1F9"/>
    <path d="M1013.6 608.022H987.745L987.986 606.646L1013.84 606.651L1013.6 608.022Z" fill="#BDD1F9"/>
    <path d="M1013.08 610.957L987.23 610.952L987.472 609.581H1013.33L1013.08 610.957Z" fill="#BDD1F9"/>
    <path d="M990.268 587.222H984.33L989.489 559.361H995.427L990.268 587.222Z" fill="#BDD1F9"/>
    <path d="M998.354 587.222H992.416L996.412 565.643H1002.35L998.354 587.222Z" fill="#BDD1F9"/>
    <path d="M1006.44 587.222H1000.51L1004.67 564.716H1010.61L1006.44 587.222Z" fill="#BDD1F9"/>
    <path d="M1014.53 587.222H1008.59L1011.76 570.101H1017.7L1014.53 587.222Z" fill="#BDD1F9"/>
    <path d="M1022.62 587.222H1016.68L1020.08 568.856H1026.02L1022.62 587.222Z" fill="#BDD1F9"/>
    <path d="M1030.71 587.222H1024.77L1027.41 572.978H1033.34L1030.71 587.222Z" fill="#BDD1F9"/>
    <path d="M1069.69 587.222H1063.75L1068.91 559.361H1074.85L1069.69 587.222Z" fill="#F99746"/>
    <path d="M1077.77 587.222H1071.84L1075.84 565.643H1081.77L1077.77 587.222Z" fill="#F99746"/>
    <path d="M1085.86 587.222H1079.93L1084.09 564.716H1090.03L1085.86 587.222Z" fill="#F99746"/>
    <path d="M1093.95 587.222H1088.01L1091.19 570.101H1097.12L1093.95 587.222Z" fill="#F99746"/>
    <path d="M1102.04 587.222H1096.1L1099.5 568.856H1105.44L1102.04 587.222Z" fill="#F99746"/>
    <path d="M1110.13 587.222H1104.19L1106.83 572.978H1112.77L1110.13 587.222Z" fill="#F99746"/>
    <path d="M1098.27 496.281H1078.95L1079.44 493.629H1098.77L1098.27 496.281Z" fill="#BDD1F9"/>
    <path d="M1121.98 496.281H1100.64L1101.14 493.629H1122.48L1121.98 496.281Z" fill="#BDD1F9"/>
    <path d="M1137.19 496.281H1123.59L1124.08 493.629H1137.69L1137.19 496.281Z" fill="#BDD1F9"/>
    <path d="M1149.89 496.281H1139.4L1139.89 493.629H1150.39L1149.89 496.281Z" fill="#BDD1F9"/>
    <path d="M1096.15 507.591H1076.83L1077.32 504.942H1096.65L1096.15 507.591Z" fill="#BDD1F9"/>
    <path d="M1119.86 507.591H1098.52L1099.02 504.942H1120.36L1119.86 507.591Z" fill="#BDD1F9"/>
    <path d="M1135.07 507.591H1121.47L1121.96 504.942H1135.57L1135.07 507.591Z" fill="#BDD1F9"/>
    <path d="M1147.77 507.591H1137.27L1137.77 504.942H1148.27L1147.77 507.591Z" fill="#BDD1F9"/>
    <path d="M1109.76 490.093H1080.11L1080.6 487.445H1110.26L1109.76 490.093Z" fill="#BDD1F9"/>
    <path d="M1129.68 490.093H1112.58L1113.08 487.445H1130.17L1129.68 490.093Z" fill="#BDD1F9"/>
    <path d="M1151.07 490.093H1132.09L1132.59 487.445H1151.57L1151.07 490.093Z" fill="#BDD1F9"/>
    <path d="M1107.5 502.124H1077.85L1078.35 499.471H1108L1107.5 502.124Z" fill="#BDD1F9"/>
    <path d="M1127.42 502.124H1110.33L1110.82 499.471H1127.92L1127.42 502.124Z" fill="#BDD1F9"/>
    <path d="M1148.81 502.124H1129.83L1130.33 499.471H1149.31L1148.81 502.124Z" fill="#BDD1F9"/>
    <path d="M1094.03 518.904H1074.71L1075.2 516.252H1094.53L1094.03 518.904Z" fill="#BDD1F9"/>
    <path d="M1117.74 518.904H1096.4L1096.9 516.252H1118.23L1117.74 518.904Z" fill="#BDD1F9"/>
    <path d="M1132.95 518.904H1119.34L1119.84 516.252H1133.45L1132.95 518.904Z" fill="#BDD1F9"/>
    <path d="M1145.65 518.904H1135.15L1135.65 516.252H1146.15L1145.65 518.904Z" fill="#BDD1F9"/>
    <path d="M1105.38 513.433H1075.73L1076.23 510.781H1105.88L1105.38 513.433Z" fill="#BDD1F9"/>
    <path d="M1125.3 513.433H1108.21L1108.7 510.781H1125.8L1125.3 513.433Z" fill="#BDD1F9"/>
    <path d="M1146.69 513.433H1127.71L1128.21 510.781H1147.19L1146.69 513.433Z" fill="#BDD1F9"/>
    <path d="M1092.04 529.506H1072.71L1073.21 526.858H1092.54L1092.04 529.506Z" fill="#BDD1F9"/>
    <path d="M1115.75 529.506H1094.41L1094.91 526.858H1116.25L1115.75 529.506Z" fill="#BDD1F9"/>
    <path d="M1130.96 529.506H1117.36L1117.85 526.858H1131.46L1130.96 529.506Z" fill="#BDD1F9"/>
    <path d="M1143.66 529.506H1133.17L1133.66 526.858H1144.16L1143.66 529.506Z" fill="#BDD1F9"/>
    <path d="M1103.39 524.039H1073.74L1074.24 521.387H1103.89L1103.39 524.039Z" fill="#BDD1F9"/>
    <path d="M1123.31 524.039H1106.22L1106.72 521.387H1123.81L1123.31 524.039Z" fill="#BDD1F9"/>
    <path d="M1144.7 524.039H1125.72L1126.22 521.387H1145.2L1144.7 524.039Z" fill="#BDD1F9"/>
    <path d="M1048.06 563.506H1038.6L1038.85 562.211H1048.3L1048.06 563.506Z" fill="#BDD1F9"/>
    <path d="M1059.67 563.506H1049.22L1049.46 562.211H1059.91L1059.67 563.506Z" fill="#BDD1F9"/>
    <path d="M1047.02 569.044H1037.56L1037.81 567.745H1047.27L1047.02 569.044Z" fill="#BDD1F9"/>
    <path d="M1058.63 569.044H1048.18L1048.43 567.745H1058.87L1058.63 569.044Z" fill="#BDD1F9"/>
    <path d="M1053.68 560.477H1039.17L1039.41 559.182H1053.92L1053.68 560.477Z" fill="#BDD1F9"/>
    <path d="M1063.43 560.477H1055.07L1055.31 559.182H1063.68L1063.43 560.477Z" fill="#BDD1F9"/>
    <path d="M1052.58 566.364H1038.07L1038.31 565.07H1052.82L1052.58 566.364Z" fill="#BDD1F9"/>
    <path d="M1062.33 566.364H1053.96L1054.2 565.07H1062.57L1062.33 566.364Z" fill="#BDD1F9"/>
    <path d="M1123.84 563.506H1114.38L1114.62 562.211H1124.08L1123.84 563.506Z" fill="#BDD1F9"/>
    <path d="M1135.44 563.506H1125L1125.24 562.211H1135.69L1135.44 563.506Z" fill="#BDD1F9"/>
    <path d="M1122.8 569.044H1113.34L1113.59 567.745H1123.04L1122.8 569.044Z" fill="#BDD1F9"/>
    <path d="M1134.41 569.044H1123.96L1124.2 567.745H1134.65L1134.41 569.044Z" fill="#BDD1F9"/>
    <path d="M1129.46 560.477H1114.95L1115.19 559.182H1129.7L1129.46 560.477Z" fill="#BDD1F9"/>
    <path d="M1139.21 560.477H1130.84L1131.09 559.182H1139.45L1139.21 560.477Z" fill="#BDD1F9"/>
    <path d="M1128.36 566.364H1113.84L1114.09 565.07H1128.6L1128.36 566.364Z" fill="#BDD1F9"/>
    <path d="M1138.11 566.364H1129.74L1129.98 565.07H1138.35L1138.11 566.364Z" fill="#BDD1F9"/>
    <path d="M1174.17 798.558C1173.84 803.093 1167.45 803.142 1160.2 802.299C1152.95 801.457 1154.88 803.294 1144.73 803.438C1134.58 803.581 1131.08 800.22 1130.59 798.769C1130.15 797.478 1135.04 796.394 1140.27 795.121C1140.93 794.965 1141.59 794.799 1142.25 794.628C1148.15 793.127 1152.05 788.709 1157.1 784.851C1161.87 781.195 1168.04 767.968 1168.04 767.968L1181.9 767.341C1181.9 767.341 1176.06 779.197 1173.87 784.309C1172.58 787.316 1173.12 791.012 1173.69 793.844C1173.99 795.386 1174.29 796.963 1174.17 798.558Z"
          fill="#FFB27D"/>
    <path d="M1160.2 802.299C1152.95 801.457 1154.88 803.294 1144.73 803.438C1134.58 803.581 1131.08 800.22 1130.59 798.769C1130.15 797.478 1135.04 796.394 1140.27 795.121L1140.33 795.215C1140.33 795.215 1146.86 798.728 1155.22 797.886C1162.03 797.2 1168.99 794.355 1173.68 793.844C1173.98 795.386 1174.28 796.963 1174.16 798.558C1173.83 803.093 1167.44 803.142 1160.2 802.299Z"
          fill="#233862"/>
    <path d="M1269.92 799.499C1269.59 804.034 1263.2 804.087 1255.95 803.254C1248.7 802.42 1250.63 804.253 1240.48 804.405C1230.33 804.558 1226.83 801.202 1226.34 799.75C1225.9 798.459 1230.78 797.371 1236.01 796.094C1236.67 795.937 1237.33 795.767 1237.99 795.601C1243.88 794.095 1247.78 789.673 1252.82 785.806C1257.6 782.145 1252.82 760.481 1252.82 760.481L1268.07 758.993C1268.07 758.993 1267.34 777.234 1267.35 785.532C1267.35 788.803 1268.86 791.953 1269.42 794.785C1269.72 796.327 1270.03 797.904 1269.91 799.499H1269.92Z"
          fill="#FFB27D"/>
    <path d="M1255.95 803.249C1248.7 802.416 1250.63 804.249 1240.48 804.401C1230.33 804.553 1226.83 801.197 1226.34 799.745C1225.9 798.455 1230.78 797.366 1236.01 796.089L1236.07 796.183C1236.07 796.183 1242.61 799.687 1250.97 798.84C1257.78 798.15 1264.73 795.296 1269.43 794.781C1269.73 796.322 1270.03 797.899 1269.91 799.495C1269.58 804.029 1263.19 804.083 1255.95 803.249H1255.95Z"
          fill="#233862"/>
    <path d="M1225.42 425.016C1222.79 414.204 1226.6 409.168 1230.03 406.488C1231.66 402.509 1233.51 399.642 1235.42 398.557C1238.88 396.586 1243.04 396.371 1245.94 396.541C1245.19 395.766 1243.72 395.488 1243.72 395.488C1245.52 395.219 1249.54 397.007 1249.54 397.007C1274.6 387.337 1278.54 424.281 1278.01 432.866C1277.49 441.447 1277.56 451.556 1290.59 458.317C1315.47 471.222 1282.33 519.842 1282.33 519.842C1282.96 512.906 1251 476.303 1234.33 465.343C1230.27 459.361 1228.83 448.786 1228.72 447.958C1229.42 456.341 1230.85 461.041 1232.13 463.689C1224.53 456.686 1223.41 439.865 1225.42 425.012L1225.42 425.016Z"
          fill="#A9453D"/>
    <path d="M1235.31 465.894C1235.23 465.93 1243.36 470.16 1249.48 468.484C1255.24 466.911 1259 459.442 1258.92 459.424C1256.48 458.94 1255.78 455.584 1255.83 441.174L1254.73 441.389L1236.21 445.063C1236.21 445.063 1236.63 450.901 1236.64 456.399C1236.66 461.019 1236.37 465.397 1235.32 465.889L1235.31 465.894Z"
          fill="#FFB27D"/>
    <path d="M1236.2 445.063C1236.2 445.063 1236.62 450.901 1236.63 456.399C1247 456.108 1252.48 446.636 1254.72 441.389L1236.2 445.063Z"
          fill="#ED975D"/>
    <path d="M1160.82 775.312C1159.91 778.162 1161.96 781.101 1164.94 781.24L1172.18 781.581L1179.84 781.814C1181.75 781.872 1183.58 781.034 1184.79 779.546C1190.91 772.036 1209.72 747.012 1221.13 710.65C1221.45 709.629 1221.79 708.598 1222.15 707.554C1229.69 685.545 1245.31 657.921 1253.55 632.918C1254.86 628.935 1256.04 625.189 1257.1 621.64C1257.43 620.502 1257.76 619.386 1258.08 618.289C1264.14 597.175 1265.9 583.312 1267.52 568.503L1208.06 568.978C1208.06 568.978 1195.55 666.403 1160.83 775.312H1160.82Z"
          fill="#2A4E96"/>
    <path d="M1216.39 534.768C1216.54 563.099 1212.23 575.256 1212.23 575.256C1212.23 575.256 1237.69 588.209 1267.95 578.674C1268.3 578.562 1289.6 572.527 1289.6 572.527C1289.09 571.38 1284.88 552.422 1284.39 551.369C1278 537.631 1276.26 531.864 1275.5 527.639C1274.09 519.753 1274.06 511.598 1274.77 503.9C1276.61 483.53 1282.1 466.624 1282.1 466.624C1273.86 464.747 1266.14 461.445 1257.56 458.223C1255.58 460.683 1249.55 463.259 1244.32 463.143C1238.29 463.008 1236.33 460.427 1236.65 457.605C1230.23 461.185 1225.1 464.563 1225.1 464.563C1219.64 474.058 1208.57 483.279 1207.77 497.842C1207.57 501.422 1216.38 533.97 1216.38 534.763L1216.39 534.768Z"
          fill="white"/>
    <path d="M1267.52 537.926C1270.12 541.61 1275.11 564 1287.5 566.814C1281.11 550.858 1276.26 543.859 1275.5 538.952C1274.1 529.794 1274.07 520.317 1274.77 511.378C1270.62 504.092 1267.52 499.101 1267.52 499.101C1267.2 497.922 1260.93 478.512 1258.92 495.861C1256.91 513.215 1264.62 533.8 1267.52 537.922V537.926Z"
          fill="#5F9AA8"/>
    <path d="M1232.74 450.274C1232.74 450.274 1257.27 450.677 1257.28 435.38C1257.3 420.083 1260.48 409.831 1244.82 408.926C1229.16 408.021 1226.11 413.855 1224.86 418.958C1223.62 424.062 1226.35 449.777 1232.74 450.274H1232.74Z"
          fill="#FFB27D"/>
    <path d="M1233.65 408.545C1233.65 408.545 1240.36 426.495 1250.67 429.147C1260.98 431.8 1265.45 429.035 1265.45 429.035C1265.45 429.035 1257.54 422.749 1255.9 411.771C1255.9 411.771 1238.71 400.005 1233.65 408.545Z"
          fill="#A9453D"/>
    <path d="M1235.31 410.006C1235.31 410.006 1230.3 414.011 1229.08 417.91C1227.85 421.803 1227.3 429.824 1224.97 429.555C1224.97 429.555 1219.91 417.354 1225.59 410.454C1231.62 403.137 1235.31 410.01 1235.31 410.01V410.006Z"
          fill="#A9453D"/>
    <path d="M1194.15 554.434L1182.56 589.8L1189.17 592.453L1208.32 561.208L1194.15 554.434Z" fill="#FFB27D"/>
    <path d="M1225.38 462.484C1225.38 462.484 1211.72 467.91 1207.77 476.374C1203.81 484.839 1197.83 541.601 1195.44 547.43C1193.06 553.26 1191.27 557.875 1191.27 557.875C1191.27 557.875 1198.16 563.686 1205.08 564.112C1212.01 564.538 1225.38 462.484 1225.38 462.484H1225.38Z"
          fill="#F99746"/>
    <path d="M1236.65 457.605C1236.65 457.605 1222.46 492.711 1222.04 499.813C1221.62 506.92 1220.37 615.994 1220.37 615.994C1220.37 615.994 1221.2 621.008 1211.6 618.92C1202 616.832 1199.5 614.74 1199.5 614.74C1199.5 614.74 1208.68 547.457 1206.17 524.054C1203.67 500.651 1225.37 462.48 1225.37 462.48L1236.64 457.605H1236.65Z"
          fill="#F99746"/>
    <path d="M1172.18 781.581L1180.49 781.836C1181.98 781.881 1183.4 781.24 1184.35 780.093C1189.94 773.318 1209.43 747.944 1221.14 710.655C1221.46 709.633 1221.8 708.603 1222.16 707.559C1229.69 685.549 1245.32 657.925 1253.56 632.923C1254.87 628.939 1256.04 625.193 1257.1 621.645C1257.44 620.507 1257.77 619.391 1258.08 618.293L1249.32 611.639C1249.32 611.639 1223.03 654.265 1214.9 694.381C1207.83 729.227 1179.51 771.154 1172.18 781.585L1172.18 781.581Z"
          fill="#1E3D70"/>
    <path d="M1248.41 698.118C1248.26 716.574 1249.14 757.707 1251.38 777.817C1251.59 779.658 1253.14 781.047 1254.99 781.047H1261.19C1263.81 781.047 1265.77 781.029 1267.07 781.007C1268.19 780.989 1269.15 780.183 1269.37 779.076C1275.54 747.639 1279.95 721.521 1283.18 698.951C1285.89 680.06 1288.29 663.867 1290.14 649.927C1292 635.898 1293.3 624.149 1293.76 614.225C1293.83 612.661 1293.89 611.142 1293.91 609.663C1293.94 608.18 1293.95 606.737 1293.94 605.339L1242.57 600.325C1243.22 634.509 1248.49 686.781 1248.41 698.118H1248.41Z"
          fill="#2A4E96"/>
    <path d="M1261.19 781.043C1263.54 781.043 1265.36 781.029 1266.65 781.011C1268.01 780.994 1269.18 780.012 1269.45 778.673C1275.58 747.415 1279.97 721.426 1283.18 698.956C1285.89 680.065 1288.29 663.871 1290.14 649.932C1292 635.902 1293.3 624.154 1293.76 614.229L1274.91 625.332C1274.91 625.332 1286.94 629.585 1282.35 661.761C1277.76 693.942 1267.58 776.49 1261.19 781.047V781.043Z"
          fill="#1E3D70"/>
    <path d="M1258.77 613.906C1258.77 613.906 1262.38 626.999 1274.91 625.328C1287.43 623.657 1305.23 616.133 1305.23 616.133C1305.23 616.133 1299.88 599.205 1293.22 576.963C1285.17 550.038 1275.2 515.326 1270.5 493.428C1269.18 487.294 1268.28 482.168 1267.95 478.498L1257.56 458.317C1257.56 458.317 1242.07 493.123 1241.24 501.901C1240.4 510.679 1258.77 613.902 1258.77 613.902V613.906Z"
          fill="#F99746"/>
    <path d="M1271.27 500.597L1257.56 458.321C1257.59 458.339 1274.87 463.47 1283.56 467.865C1283.56 467.865 1289 474.878 1292.36 491.058C1292.36 491.058 1295.91 529.906 1287.98 544.114C1287.98 544.114 1262.94 549.128 1222.87 535.337V526.142C1222.87 526.142 1266.69 528.441 1275.67 529.485L1271.27 500.593V500.597Z"
          fill="#FFB27D"/>
    <path d="M1259.32 520.295C1259.88 534.503 1263.22 562.087 1292.99 576.851C1293.07 576.887 1293.14 576.931 1293.22 576.963C1285.17 550.038 1275.2 515.326 1270.5 493.428C1265.03 501.61 1259.02 512.467 1259.32 520.29V520.295Z"
          fill="#ED7D2B"/>
    <path d="M1257.56 458.321C1257.56 458.321 1282.98 460.114 1289.09 473.767C1295.22 487.419 1297.16 532.832 1289.37 546.207C1289.37 546.207 1278.65 549.267 1259.68 545.714C1259.45 545.669 1259.21 545.624 1258.98 545.58C1258.98 545.58 1252.93 530.744 1258.35 527.818C1258.35 527.818 1274.35 528.656 1272.68 523.36C1271.01 518.068 1257.56 458.321 1257.56 458.321H1257.56Z"
          fill="#F99746"/>
    <path d="M1193.84 531.824L1194.59 534.234L1236.29 521.245C1236.29 521.245 1236.84 520.608 1236.57 519.766C1236.27 518.834 1235.54 518.834 1235.54 518.834L1193.84 531.824Z"
          fill="#A9453D"/>
    <path d="M1190.83 534.1L1193.84 531.824L1194.59 534.234L1190.83 534.1Z" fill="#A9453D"/>
    <path d="M1184.21 588.832C1184.21 588.832 1173.63 594.684 1172.24 599.147C1170.85 603.61 1171.8 612.948 1173.48 612.809C1175.16 612.67 1177.67 602.772 1179.06 602.077C1180.45 601.378 1182.4 599.29 1182.4 600.823C1182.4 602.355 1181.01 605.142 1181.7 605.563C1182.4 605.98 1184.62 601.661 1186.15 600.823C1187.68 599.985 1188.33 593.093 1189.81 591.243C1191.3 589.392 1184.2 588.837 1184.2 588.837L1184.21 588.832Z"
          fill="#FFB27D"/>
    <path d="M1222.87 526.147C1222.87 526.147 1213.41 520.313 1209.45 521.209C1205.48 522.105 1195.36 529.44 1200.23 531.031C1205.09 532.617 1209.03 530.954 1210.9 532.106C1212.77 533.262 1214.16 535.368 1222.87 535.341C1231.59 535.314 1222.87 526.147 1222.87 526.147Z"
          fill="#FFB27D"/>
    <g opacity="0.6">
        <path d="M504.696 802.122H504.539C503.617 802.122 502.879 801.364 502.901 800.441L505.385 692.635L512.701 691.779L506.463 800.45C506.409 801.387 505.635 802.122 504.696 802.122Z"
              fill="#77A4E5"/>
        <path d="M462.057 802.122H461.9C460.978 802.122 460.24 801.364 460.262 800.441L462.746 692.635L470.062 691.779L463.824 800.45C463.77 801.387 462.996 802.122 462.057 802.122Z"
              fill="#77A4E5"/>
        <path d="M579.714 802.122H579.87C580.792 802.122 581.53 801.364 581.508 800.441L579.025 692.635L571.708 691.779L577.946 800.45C578 801.387 578.774 802.122 579.714 802.122Z"
              fill="#77A4E5"/>
        <path d="M457.206 685.949V612.075C457.206 599.077 467.73 588.538 480.711 588.538H533.866C546.847 588.538 557.371 599.077 557.371 612.075V688.772L457.211 685.949H457.206Z"
              fill="#77A4E5"/>
        <path d="M457.206 685.949H566.894V697.613H464.263C460.37 697.613 457.206 694.445 457.206 690.547V685.949Z"
              fill="#77A4E5"/>
        <path d="M501.55 685.949H579.194C582.076 685.949 584.412 688.293 584.412 691.174V692.384C584.412 695.269 582.072 697.608 579.194 697.608H501.55C498.668 697.608 496.333 695.265 496.333 692.384V691.174C496.333 688.288 498.673 685.949 501.55 685.949Z"
              fill="#77A4E5"/>
    </g>
    <path d="M637.28 759.133C638.023 762.848 643.307 762.225 649.214 760.782C655.12 759.339 653.715 761.056 662.119 760.124C670.522 759.192 673.068 756.055 673.328 754.8C673.556 753.689 669.404 753.299 664.951 752.784C664.392 752.721 663.828 752.654 663.264 752.583C658.235 751.951 654.552 748.702 649.984 746.032C645.657 743.505 639.2 733.203 639.2 733.203L627.673 734.117C627.673 734.117 633.723 743.316 636.063 747.318C637.441 749.67 637.365 752.78 637.195 755.181C637.105 756.485 637.02 757.82 637.284 759.129L637.28 759.133Z"
          fill="#FFB27D"/>
    <path d="M649.214 760.782C655.12 759.339 653.715 761.056 662.119 760.124C670.522 759.192 673.068 756.055 673.328 754.8C673.556 753.689 669.403 753.299 664.951 752.784L664.911 752.869C664.911 752.869 659.872 756.449 652.874 756.615C647.173 756.754 641.132 755.119 637.195 755.181C637.105 756.485 637.02 757.82 637.284 759.129C638.027 762.843 643.312 762.221 649.218 760.778L649.214 760.782Z"
          fill="#233862"/>
    <path d="M538.229 775.743C535.938 778.759 539.898 782.317 544.887 785.794C549.876 789.271 547.661 789.356 553.917 795.051C560.173 800.746 564.209 800.58 565.314 799.948C566.298 799.388 563.842 796.01 561.282 792.322C560.96 791.861 560.638 791.39 560.32 790.924C557.465 786.73 557.465 781.815 556.441 776.617C555.47 771.697 563.497 753.609 563.497 753.609L550.601 751.982C550.601 751.982 548.919 762.906 547.469 767.306C546.619 769.896 543.035 771.603 541.124 773.064C540.086 773.862 539.03 774.682 538.224 775.743H538.229Z"
          fill="#FFB27D"/>
    <path d="M544.887 785.794C549.876 789.271 547.661 789.356 553.917 795.051C560.172 800.746 564.208 800.58 565.314 799.948C566.298 799.388 563.841 796.01 561.282 792.322L561.188 792.349C561.188 792.349 555.174 790.933 550.422 785.789C546.547 781.6 543.777 775.981 541.123 773.068C540.085 773.866 539.029 774.686 538.224 775.748C535.933 778.763 539.893 782.321 544.882 785.798L544.887 785.794Z"
          fill="#233862"/>
    <path d="M590.886 683.274L579.109 715.007L563.734 756.44C563.734 756.44 559.564 756.844 555.568 755.692C551.89 754.626 547.67 751.843 547.67 751.843C547.67 751.843 551.939 707.354 559.904 681.818C561.944 675.263 564.231 669.962 566.754 666.978C579.1 652.366 590.886 683.279 590.886 683.279V683.274Z"
          fill="#163560"/>
    <path d="M578.912 632.879C571.198 630.388 547.948 631.876 525.843 636.208L522.46 630.276L474.715 626.544C474.715 626.544 458.96 661.529 467.587 683.821C468.853 687.096 471.373 689.198 475.668 689.27C475.668 689.27 476.362 689.27 476.366 689.27C476.366 689.27 504.785 689.252 514.012 689.252C537.754 689.252 564.262 672.906 567.69 672.22C573.301 671.096 575.547 682.338 581.159 694.14C586.77 705.942 633.915 746.408 633.915 746.408C633.915 746.408 641.159 746.48 644.153 745.355C647.37 744.145 648.552 742.577 648.552 742.577C648.552 742.577 596.31 638.503 578.912 632.879Z"
          fill="#2A4E96"/>
    <path d="M505.738 485.557C499.017 483.953 489.893 485.835 488.376 486.014C470.245 488.133 466.191 516.335 467.538 524.226C470.021 538.766 463.05 542.861 454.727 554.489C438.041 577.806 449.567 597.002 463.148 601.76C471.296 604.615 482.402 596.841 482.402 596.841C482.608 596.917 511.233 569.553 525.391 556.259C549.191 546.437 522.858 489.643 505.733 485.557H505.738Z"
          fill="#233862"/>
    <path d="M509.622 552.056C509.707 552.082 502.239 556.966 496.153 555.94C490.43 554.977 484.371 547.499 484.447 547.476C486.761 546.768 488.806 544.066 487.36 530.118L488.448 530.221L506.74 531.977C506.74 531.977 506.897 537.672 507.42 542.996C507.854 547.467 508.553 551.679 509.622 552.056Z"
          fill="#FFB27D"/>
    <path d="M506.745 531.973C506.745 531.973 506.902 537.668 507.425 542.991C497.357 543.717 491.137 535.078 488.453 530.212L506.745 531.968V531.973Z"
          fill="#ED975D"/>
    <path d="M510.598 536.678C510.598 536.678 486.891 539.451 485.392 524.642C483.893 509.829 479.825 500.213 494.901 497.816C509.976 495.419 513.493 500.773 515.193 505.595C516.894 510.416 516.728 535.575 510.602 536.682L510.598 536.678Z"
          fill="#FFB27D"/>
    <path d="M512.365 497.986C512.365 497.986 500.914 514.399 491.195 517.971C481.472 521.542 476.876 519.297 476.876 519.297C476.876 519.297 481.512 512.903 483.043 504.103C483.495 501.508 485.293 499.349 487.772 498.479C494.744 496.042 508.181 492.309 512.365 497.982V497.986Z"
          fill="#233862"/>
    <path d="M502.901 499.196C502.901 499.196 509.023 502.696 511.466 505.828C513.824 508.848 516.343 516.873 515.981 520.408C515.981 520.408 519.838 503.56 513.663 497.431C507.116 490.929 502.901 499.201 502.901 499.201V499.196Z"
          fill="#233862"/>
    <path d="M527.852 591.352C527.136 639.309 527.655 629.286 522.415 633.838C521.153 634.936 517.605 635.586 512.933 635.895C498.247 636.872 472.433 634.448 471.453 631.732C468.066 622.327 470.455 619.41 467.632 605.014C467.336 603.481 466.974 601.823 466.544 600.022C464.186 590.133 461.895 586.772 470.254 570.888C477.834 556.501 486.023 545.007 486.73 545.429C506.731 557.316 508.033 547.14 508.033 547.14C508.033 547.14 528.201 567.967 527.852 591.361V591.352Z"
          fill="white"/>
    <path d="M579.109 715.007L563.385 758.165C563.385 758.165 557.738 760.007 553.622 759.411C549.429 758.802 547.133 756.512 547.133 756.512C547.133 756.512 551.939 707.358 559.9 681.823L579.109 715.011V715.007Z"
          fill="#2A4E96"/>
    <path d="M508.034 547.131C508.034 547.131 528.613 550.626 531.029 559.498C533.445 568.37 551.12 617.264 551.12 617.264C551.12 617.264 537.209 622.412 532.371 617.573C527.539 612.734 515.556 572.672 515.556 572.672L508.034 547.131Z"
          fill="white"/>
    <path d="M512.933 635.895C498.247 636.872 472.433 634.448 471.453 631.732C468.066 622.327 470.455 619.41 467.632 605.014L474.518 589.309C474.518 589.309 473.543 607.281 480.094 613.128C486.636 618.976 506.91 624.42 510.096 629.308C511.631 631.652 512.642 634.004 512.938 635.895H512.933Z"
          fill="#DFEBFD"/>
    <path d="M514.132 625.661C514.132 625.661 518.504 629.438 519.753 629.743C520.996 630.047 521.703 629.765 521.703 629.765L518.518 626.028L514.137 625.661H514.132Z"
          fill="#FFB27D"/>
    <path d="M512.396 621.211L523.471 624.075C523.471 624.075 523.185 624.863 521.932 625.06C520.679 625.253 517.314 624.742 517.314 624.742L512.396 621.216V621.211Z"
          fill="#FFB27D"/>
    <path d="M493.621 627.323C493.621 627.323 509.43 620.279 512.396 621.211C515.363 622.143 522.974 626.176 524.169 627.874C525.364 629.573 517.936 627.664 515.618 627.516C514.115 627.422 510.629 629.487 508.897 630.482C501.612 634.672 496.551 634.3 496.551 634.3L493.621 627.323Z"
          fill="#FFB27D"/>
    <path d="M486.73 545.42C486.73 545.42 464.365 549.623 460.222 555.828C451.183 569.374 431.937 625.491 442.717 633.014C454.852 641.487 497.957 635.232 497.957 635.232C497.957 635.232 499.393 628.52 497.397 625.271C495.402 622.022 462.974 616.776 461.475 615.279C459.98 613.782 476.259 592.109 474.527 587.96C468.97 574.67 486.739 545.415 486.739 545.415L486.73 545.42Z"
          fill="white"/>
    <path d="M575.145 624.93C575.145 624.93 590.797 629.165 592.403 631.598C594.014 634.031 597.164 641.469 597.03 643.409C596.896 645.349 592.623 639.569 591.021 638.09C589.983 637.132 586.228 636.571 584.385 636.271C579.731 635.514 577.489 633.381 575.744 632.324C574.576 631.611 573.153 631.746 573.153 631.746L575.14 624.935L575.145 624.93Z"
          fill="#FFB27D"/>
    <path d="M591.039 635.859C591.039 635.859 591.987 641.196 592.717 642.15C593.441 643.109 594.122 643.324 594.122 643.324L594.01 638.718L591.039 635.859Z"
          fill="#FFB27D"/>
    <path d="M592.403 631.593L598.766 640.228C598.766 640.228 598.091 640.631 597.066 640.031C596.041 639.43 593.898 637.069 593.898 637.069L592.403 631.593Z"
          fill="#FFB27D"/>
    <path d="M575.749 632.319C575.749 632.319 577.198 635.846 580.098 637.109C582.993 638.373 585.123 640.273 585.588 639.591C586.054 638.91 583.396 635.317 583.396 635.317L575.753 632.324L575.749 632.319Z"
          fill="#FFB27D"/>
    <path d="M546.963 605.699L579.879 626.539C579.879 626.539 576.42 631.172 575.265 631.593C569.171 633.834 541.755 631.687 532.367 617.573L546.959 605.699H546.963Z"
          fill="white"/>
    <path d="M533.92 628.349C535.862 628.349 555.183 627.01 555.183 627.01C555.183 627.01 554.624 630.437 555.819 632.274L536.989 635.881L533.119 634.743L533.915 628.349H533.92Z"
          fill="#F9DDBF"/>
    <path d="M501.693 631.459L533.919 628.349C533.919 628.349 532.787 634.318 536.993 635.877L501.465 638.48C501.465 638.48 498.605 634.443 501.693 631.459Z"
          fill="#F99746"/>
    <path d="M555.129 627.435L533.351 629.115C533.351 629.115 533.517 628.363 533.919 628.354C534.327 628.345 555.554 626.799 555.554 626.799L555.478 627.395L555.125 627.44L555.129 627.435Z"
          fill="#F99746"/>
    <path d="M536.989 635.881L556.172 632.23L555.993 631.732L535.553 635.653L536.989 635.881Z" fill="#F99746"/>
    <path d="M313.788 801.948H313.614C312.594 801.948 311.77 801.102 311.797 800.076L314.553 679.696L322.675 678.741L315.748 800.084C315.69 801.133 314.826 801.948 313.788 801.948Z"
          fill="#77A4E5"/>
    <path d="M266.455 801.948H266.281C265.261 801.948 264.437 801.102 264.464 800.076L267.22 679.696L275.342 678.741L268.415 800.084C268.357 801.133 267.493 801.948 266.455 801.948Z"
          fill="#77A4E5"/>
    <path d="M397.066 801.948H397.241C398.261 801.948 399.084 801.102 399.058 800.076L396.301 679.696L388.18 678.741L395.106 800.084C395.165 801.133 396.028 801.948 397.066 801.948Z"
          fill="#77A4E5"/>
    <path d="M261.072 672.231V589.74C261.072 575.227 272.756 563.461 287.164 563.461H346.172C360.584 563.461 372.263 575.227 372.263 589.74V675.381L261.072 672.231Z"
          fill="#77A4E5"/>
    <path d="M261.072 672.231H382.837V685.252H268.93C264.594 685.252 261.072 681.726 261.072 677.384V672.231Z"
          fill="#77A4E5"/>
    <path d="M396.471 672.231H310.312C307.104 672.231 304.503 674.835 304.503 678.047V679.436C304.503 682.648 307.104 685.252 310.312 685.252H396.471C399.679 685.252 402.279 682.648 402.279 679.436V678.047C402.279 674.835 399.679 672.231 396.471 672.231Z"
          fill="#77A4E5"/>
    <path d="M350.14 532.992C350.14 532.992 345.2 537.199 344.131 548.11C343.316 556.395 349.057 620.711 353.375 625.824C365.524 640.207 380.756 634.131 386.721 636.313L392.35 631.25C392.35 631.25 372.563 616.625 371.059 611.857C365.265 593.491 368.858 539.932 350.145 532.996L350.14 532.992Z"
          fill="#F9DDBF"/>
    <path d="M346.592 480.531C346.592 480.531 346.927 468.733 331.391 466.421C315.855 464.105 311.564 467.743 308.924 471.713C306.284 475.678 301.331 491.881 301.827 498.329C302.324 504.776 320.044 512.748 319.753 516.511C319.462 520.275 346.596 480.536 346.596 480.536L346.592 480.531Z"
          fill="#163560"/>
    <path d="M418.647 791.768C418.142 795.756 423.574 796.926 429.888 797.481C436.201 798.037 434.246 799.287 442.86 801.205C451.473 803.127 455.035 800.833 455.702 799.663C456.297 798.624 452.328 796.818 448.095 794.788C447.563 794.533 447.03 794.273 446.498 794.013C441.741 791.67 439.182 787.149 435.557 782.914C432.125 778.904 429.176 766.349 429.176 766.349L417.484 763.351C417.484 763.351 420.397 774.656 421.377 779.473C421.954 782.305 420.844 785.41 419.873 787.767C419.35 789.048 418.822 790.361 418.647 791.768Z"
          fill="#FFB27D"/>
    <path d="M429.888 797.486C436.202 798.041 434.246 799.291 442.86 801.209C451.474 803.131 455.035 800.837 455.702 799.668C456.297 798.628 452.328 796.823 448.095 794.793L448.024 794.864C448.024 794.864 441.853 796.751 434.886 794.542C429.208 792.745 423.784 789.044 419.873 787.771C419.35 789.053 418.822 790.366 418.647 791.773C418.142 795.761 423.574 796.93 429.888 797.486Z"
          fill="#233862"/>
    <path d="M331.109 629.256C331.109 629.256 409.273 637.375 422.16 649.357C435.043 661.338 432.747 772.967 432.747 772.967C430.742 775.051 429.261 775.001 426.093 774.755C423.051 774.517 416.853 771.896 416.853 771.896C416.853 771.896 400.113 717.083 399.903 704.394C399.693 691.7 397.048 670.165 391.728 668.897C386.412 667.629 323.131 674.731 316.195 654.716C309.26 634.7 320.778 618.233 320.778 618.233L331.109 629.256Z"
          fill="#ED7D2B"/>
    <path d="M294.596 649.388C297.97 651.651 303.998 655.137 314.119 655.495C332.228 656.154 354.821 653.994 359.269 649.787C360.423 648.702 360.987 646.901 361.148 644.621C361.64 637.662 358.32 626.218 356.092 616.746C354.646 610.589 353.662 605.275 354.467 602.555C356.924 594.284 364.558 577.427 365.216 571.885C365.873 566.346 359.273 536.661 350.145 532.987C341.012 529.308 305.783 532.987 305.783 532.987C292.019 535.783 291.442 565.168 296.01 590.179C296.131 590.825 296.248 591.465 296.373 592.097C301.326 617.494 285.191 643.07 294.601 649.384L294.596 649.388Z"
          fill="#F9DDBF"/>
    <path d="M340.113 538.395C339.866 540.008 335.459 542.621 326.044 540.134C317.019 537.75 315.936 534.811 315.94 532.866C315.94 530.568 319.86 527.467 319.811 513.317L320.894 513.532L339.088 517.139C339.088 517.139 338.672 522.87 338.663 528.273C338.649 532.808 340.529 535.716 340.117 538.4L340.113 538.395Z"
          fill="#FFB27D"/>
    <path d="M339.083 517.139C339.083 517.139 338.667 522.87 338.658 528.273C328.478 527.987 323.095 518.685 320.889 513.532L339.083 517.139Z"
          fill="#ED975D"/>
    <path d="M342.484 522.251C342.484 522.251 318.397 522.65 318.379 507.626C318.361 492.602 315.242 482.534 330.622 481.647C346.001 480.76 348.995 486.486 350.216 491.5C351.438 496.514 348.749 521.763 342.484 522.251Z"
          fill="#FFB27D"/>
    <path d="M341.589 481.275C341.589 481.275 334.993 498.902 324.872 501.505C314.75 504.113 310.36 501.398 310.36 501.398C310.36 501.398 318.124 495.223 319.735 484.443C319.735 484.443 336.613 472.887 341.589 481.275Z"
          fill="#163560"/>
    <path d="M339.956 482.709C339.956 482.709 344.883 486.643 346.082 490.469C347.281 494.296 347.823 502.173 350.114 501.904C350.114 501.904 355.08 489.923 349.501 483.148C343.581 475.961 339.956 482.709 339.956 482.709Z"
          fill="#163560"/>
    <path d="M359.944 795.044C359.886 799.063 365.412 799.601 371.748 799.426C378.085 799.247 376.277 800.716 385.052 801.63C393.822 802.544 397.106 799.856 397.643 798.615C398.122 797.513 393.974 796.177 389.544 794.649C388.985 794.461 388.43 794.259 387.871 794.062C382.881 792.283 379.839 788.085 375.767 784.294C371.91 780.705 380.425 763.333 380.425 763.333L369.265 757.804C369.265 757.804 367.149 770.207 364.423 781.055C363.721 783.86 361.425 788.475 360.723 790.93C360.347 792.266 359.967 793.632 359.949 795.048L359.944 795.044Z"
          fill="#FFB27D"/>
    <path d="M295.079 646.404C298.453 648.667 304.002 655.137 314.119 655.5C330.818 651.696 349.831 647.269 361.143 644.625C361.635 637.666 358.315 626.223 356.087 616.75C342.896 620.783 323.27 607.045 316.674 601.614C309.738 595.91 309.958 576.907 309.958 576.907L296.006 590.188C296.126 590.834 296.243 591.474 296.368 592.106C301.321 617.503 285.669 640.095 295.079 646.408V646.404Z"
          fill="#F2CCAA"/>
    <path d="M371.744 799.426C378.08 799.247 376.272 800.716 385.047 801.63C393.818 802.544 397.102 799.856 397.639 798.615C398.118 797.513 393.97 796.177 389.54 794.649L389.477 794.73C389.477 794.73 383.553 797.315 376.384 795.926C370.54 794.797 364.741 791.746 360.714 790.93C360.338 792.266 359.958 793.632 359.94 795.048C359.882 799.067 365.408 799.605 371.744 799.43V799.426Z"
          fill="#233862"/>
    <path d="M314.244 634.028C334.09 633.463 393.361 638.2 404.749 646.798C418.764 657.382 378.724 771.811 378.724 771.811C378.724 771.811 374.075 772.264 372.603 772.093C366.245 771.372 363.654 769.432 363.654 769.432C363.654 769.432 363.81 702.077 368.486 689.195C372.809 677.29 375.458 673.078 370.044 672.37C364.629 671.662 297.035 680.292 291.392 659.859C286.985 643.899 293.495 629.126 293.495 629.126C293.495 629.126 295.934 634.548 314.24 634.023L314.244 634.028Z"
          fill="#F99746"/>
    <path d="M305.778 532.987C305.778 532.987 291.992 534.161 290.918 545.072C290.104 553.357 284.108 612.122 288.426 617.23C300.574 631.613 341.093 634.66 347.057 636.842L348.699 630.04C348.699 630.04 305.447 608.219 306.105 603.259C306.767 598.299 318.997 531.02 305.774 532.987H305.778Z"
          fill="#F9DDBF"/>
    <path d="M316.424 472.354C316.424 472.354 317.412 466.058 308.696 464.436C299.979 462.814 299.818 481.351 298.883 485.823C297.948 490.295 300.279 492.97 303.599 493.243C306.924 493.516 316.424 472.354 316.424 472.354Z"
          fill="#163560"/>
    <path d="M349.174 629.744C349.174 629.744 361.493 626.254 364.428 627.069C367.363 627.885 377.413 634.552 376.004 636.362C374.59 638.173 365.735 635.278 361.658 635.825C357.582 636.371 354.432 638.388 351.496 637.953C348.561 637.518 345.496 636.362 345.496 636.362L349.178 629.744H349.174Z"
          fill="#FFB27D"/>
    <path d="M349.174 629.744C349.174 629.744 355.201 626.644 356.915 624.878C357.13 624.654 357.497 624.704 357.662 624.963C358.123 625.689 358.553 627.092 356.436 628.481C353.394 630.484 349.169 629.74 349.169 629.74L349.174 629.744Z"
          fill="#FFB27D"/>
    <path d="M392.345 631.245C392.345 631.245 405.13 631.944 407.64 633.67C410.15 635.395 417.502 644.966 415.578 646.22C413.654 647.475 406.217 641.856 402.181 641.054C398.149 640.247 394.516 641.13 391.88 639.763C389.244 638.397 386.716 636.309 386.716 636.309L392.345 631.245Z"
          fill="#FFB27D"/>
    <path d="M304.529 802.998H252.516C250.014 799.942 250.936 788.66 251.317 784.977C251.393 784.233 251.446 783.803 251.446 783.803C251.446 783.803 269.206 769.576 271.645 780.469C271.721 780.81 271.811 781.146 271.909 781.473C274.983 791.662 288.77 796.29 296.73 797.581C301.907 798.423 303.818 801.116 304.525 802.994L304.529 802.998Z"
          fill="#1B3051"/>
    <path d="M162.61 633.765C164.49 633.765 251.706 650.164 266.132 668.043C273.341 676.977 274.41 780.142 274.41 780.142C274.41 780.142 265.492 791.214 246.237 784.784C246.237 784.784 232.12 714.199 233.163 692.79C233.449 686.871 173.573 691.934 162.615 689.093C151.656 686.252 124.88 662.379 130.778 650.747C136.68 639.115 162.615 633.76 162.615 633.76L162.61 633.765Z"
          fill="#233862"/>
    <path d="M225.757 628.921C225.757 628.921 231.337 633.742 237.065 635.109C240.331 635.889 243.49 636.771 245.374 637.636C250.551 640.016 260.378 650.644 259.465 651.697C256.534 655.084 244.739 646.262 242.479 646.885C240.224 647.507 246.18 652.633 243.817 654.027C242.582 654.753 240.255 650.326 238.08 649.703C235.136 648.86 233.181 644.407 232.299 644.102C230.581 643.51 223.417 637.076 223.417 637.076L225.762 628.921H225.757Z"
          fill="#FFB27D"/>
    <path d="M327.516 802.998H275.502C273.001 799.942 273.923 788.66 274.303 784.977C274.379 784.233 274.433 783.803 274.433 783.803C274.433 783.803 292.193 769.576 294.631 780.469C294.707 780.81 294.797 781.146 294.895 781.473C297.969 791.662 311.756 796.29 319.716 797.581C324.894 798.423 326.804 801.116 327.511 802.994L327.516 802.998Z"
          fill="#1E3C68"/>
    <path d="M188.309 633.765C190.188 633.765 277.404 650.164 291.83 668.043C299.039 676.977 300.108 780.142 300.108 780.142C300.108 780.142 291.19 791.214 271.936 784.784C271.936 784.784 257.818 714.199 258.861 692.79C259.147 686.871 199.272 691.934 188.313 689.093C177.355 686.252 150.578 662.379 156.476 650.747C162.378 639.115 188.313 633.76 188.313 633.76L188.309 633.765Z"
          fill="#2B478B"/>
    <path d="M182.849 527.638C176.576 527.119 169.998 525.447 164.311 523.597C157.205 521.289 151.473 517.911 155.165 511.409C158.565 505.414 164.074 492.021 163.702 480.927L176.929 491.6L185.914 498.85C185.914 498.85 185.879 503.124 184.894 510.612C184.715 511.978 184.505 513.452 184.259 515.025C184.057 516.298 184.644 517.566 185.735 518.247C185.803 518.287 185.87 518.332 185.937 518.372C190.403 521.182 188.107 528.073 182.849 527.638Z"
          fill="#FFB27D"/>
    <path d="M185.915 497.08C185.915 497.08 186.376 498.63 185.584 504.361C177.574 503.053 170.088 496.654 170.088 496.654C174.164 495.534 175.65 491.12 178.684 491.533L185.91 497.08H185.915Z"
          fill="#ED975D"/>
    <path d="M193.32 498.388C193.32 498.388 162.512 503.514 159.621 484.251C156.731 464.993 150.806 452.68 170.352 448.593C189.897 444.507 194.833 451.282 197.361 457.474C199.889 463.667 201.258 496.555 193.32 498.388Z"
          fill="#FFB27D"/>
    <path d="M201.893 448.952C203.218 453.59 199.674 459.24 193.732 461.099C184.908 463.859 186.859 474.698 182.889 474.55C178.92 474.403 177.319 468.322 173.775 473.179C170.75 477.324 176.294 482.235 175.909 484.511C175.256 488.414 169.152 496.394 163.648 495.995C158.149 495.597 147.857 469.42 149.916 461.323C151.974 453.227 160.207 444.686 168.002 443.508C175.797 442.329 186.617 445.699 189.118 445.699C191.62 445.699 201.182 446.452 201.893 448.956V448.952Z"
          fill="#2B478B"/>
    <path d="M209.536 627.989C209.022 632.434 208.087 635.459 206.619 636.44C202.028 639.518 195.938 643.349 189.141 647.14C165.045 660.596 132.053 673.581 125.341 650.841C117.457 624.131 122.638 573.978 130.366 542.828C134.814 524.883 147.124 506.05 155.447 506.073C169.627 506.095 190.009 509.845 198.238 530.174C201.424 538.052 206.109 565.339 208.498 590.342C209.926 605.236 210.534 619.314 209.536 627.989Z"
          fill="white"/>
    <path d="M154.015 506.247L157.223 499.006C157.223 499.006 185.686 501.91 190.515 518.287C190.515 518.287 168.513 506.601 154.01 506.252L154.015 506.247Z"
          fill="#DFEBFD"/>
    <path d="M209.536 627.989C209.022 632.434 208.087 635.459 206.619 636.44C202.028 639.518 195.938 643.349 189.141 647.14C182.048 642.825 167.488 632.524 164.083 620.381C159.635 604.506 162.754 584.974 162.754 584.974L209.536 627.98V627.989Z"
          fill="#DFEBFD"/>
    <path d="M159.787 530.676C159.787 530.676 162.257 598.896 166.132 612.387C172.737 635.387 232.993 643.578 232.993 643.578C232.993 643.578 236.546 639.545 234.957 632.855C234.957 632.855 198.936 604.425 197.88 599.012C196.828 593.599 205.729 556.92 195.553 543.585C185.378 530.246 166.62 518.69 159.787 530.676Z"
          fill="white"/>
    <path d="M84.2501 802.353H84.0532C82.4289 802.317 81.176 800.991 81.3326 799.463L92.1568 691.213L101.603 692.055L86.0578 800.888C85.937 801.739 85.1584 802.366 84.2501 802.353Z"
          fill="#77A4E5"/>
    <path d="M139.964 802.353H139.768C138.143 802.317 136.89 800.991 137.047 799.463L147.871 691.213L157.317 692.055L141.772 800.888C141.651 801.739 140.873 802.366 139.964 802.353Z"
          fill="#77A4E5"/>
    <path d="M244.56 802.353H244.757C246.381 802.317 247.634 800.991 247.477 799.463L236.653 691.213L227.207 692.055L242.752 800.888C242.873 801.739 243.651 802.366 244.555 802.353H244.56Z"
          fill="#77A4E5"/>
    <path d="M87.3064 675.875L77.0326 585.462C75.6857 572.432 80.0396 559.676 98.8153 558.69L131.847 556.674C151.424 555.863 160.266 572.181 162.745 584.741L182.353 684.128L87.3064 675.875Z"
          fill="#77A4E5"/>
    <path d="M239.436 692.794H92.8283C89.8705 692.794 87.4721 690.393 87.4721 687.431V675.463H239.436C242.394 675.463 244.792 677.864 244.792 680.826V687.431C244.792 690.393 242.394 692.794 239.436 692.794Z"
          fill="#77A4E5"/>
    <path d="M178.196 692.794H91.6291C89.3336 692.794 87.4722 690.93 87.4722 688.632V675.467H178.196C180.492 675.467 182.353 677.331 182.353 679.63V688.627C182.353 690.926 180.492 692.79 178.196 692.79V692.794Z"
          fill="#77A4E5"/>
    <path d="M62.8609 802H1380.14C1381.16 802 1382 802.771 1382 803.718V805.282C1382 806.229 1381.16 807 1380.14 807H62.8609C61.8356 807 61 806.229 61 805.282V803.718C61 802.771 61.8356 802 62.8609 802Z"
          fill="#2E3552"/>
    <path d="M319.622 333.699H268.87C266.53 333.699 264.633 335.599 264.633 337.942V386.993C264.633 389.337 266.53 391.236 268.87 391.236H319.622C321.962 391.236 323.86 389.337 323.86 386.993V337.942C323.86 335.599 321.962 333.699 319.622 333.699Z"
          fill="#77A4E5"/>
    <path d="M271.072 336.191H317.425C319.559 336.191 321.295 337.925 321.295 340.066V384.869C321.295 387.007 319.564 388.745 317.425 388.745H271.072C268.937 388.745 267.201 387.011 267.201 384.869V340.066C267.201 337.929 268.933 336.191 271.072 336.191Z"
          fill="#DFEBFD"/>
    <path d="M294.247 342.67C294.924 342.67 295.473 342.12 295.473 341.442C295.473 340.764 294.924 340.214 294.247 340.214C293.569 340.214 293.021 340.764 293.021 341.442C293.021 342.12 293.569 342.67 294.247 342.67Z"
          fill="#77A4E5"/>
    <path d="M302.918 343.18C303.25 342.589 303.992 342.374 304.588 342.706C305.178 343.037 305.393 343.781 305.062 344.377C304.731 344.968 303.988 345.183 303.393 344.852C302.802 344.52 302.587 343.776 302.918 343.18Z"
          fill="#77A4E5"/>
    <path d="M311.403 349.924C311.971 349.557 312.732 349.722 313.098 350.291C313.465 350.86 313.3 351.622 312.732 351.99C312.163 352.357 311.403 352.191 311.036 351.622C310.669 351.053 310.834 350.291 311.403 349.924Z"
          fill="#77A4E5"/>
    <path d="M315.604 360.369C316.28 360.369 316.83 360.92 316.83 361.596C316.83 362.273 316.28 362.824 315.604 362.824C314.928 362.824 314.378 362.273 314.378 361.596C314.378 360.92 314.928 360.369 315.604 360.369Z"
          fill="#77A4E5"/>
    <path d="M312.588 374.586C313.266 374.586 313.814 374.036 313.814 373.358C313.814 372.68 313.266 372.131 312.588 372.131C311.911 372.131 311.362 372.68 311.362 373.358C311.362 374.036 311.911 374.586 312.588 374.586Z"
          fill="#77A4E5"/>
    <path d="M305.751 380.223C306.23 380.702 306.23 381.482 305.751 381.961C305.272 382.441 304.494 382.441 304.015 381.961C303.536 381.482 303.536 380.702 304.015 380.223C304.494 379.743 305.272 379.743 305.751 380.223Z"
          fill="#77A4E5"/>
    <path d="M294.247 385.438C294.924 385.438 295.473 384.889 295.473 384.211C295.473 383.533 294.924 382.983 294.247 382.983C293.569 382.983 293.021 383.533 293.021 384.211C293.021 384.889 293.569 385.438 294.247 385.438Z"
          fill="#77A4E5"/>
    <path d="M285.534 343.18C285.203 342.589 284.461 342.374 283.865 342.706C283.275 343.037 283.06 343.781 283.391 344.377C283.722 344.968 284.465 345.183 285.06 344.852C285.651 344.52 285.866 343.776 285.534 343.18Z"
          fill="#77A4E5"/>
    <path d="M277.055 349.924C276.487 349.557 275.726 349.722 275.359 350.291C274.992 350.86 275.153 351.622 275.726 351.99C276.294 352.357 277.055 352.191 277.422 351.622C277.789 351.053 277.628 350.291 277.055 349.924Z"
          fill="#77A4E5"/>
    <path d="M272.853 360.369C272.177 360.369 271.627 360.92 271.627 361.596C271.627 362.273 272.177 362.824 272.853 362.824C273.529 362.824 274.079 362.273 274.079 361.596C274.079 360.92 273.529 360.369 272.853 360.369Z"
          fill="#77A4E5"/>
    <path d="M275.864 374.586C276.541 374.586 277.09 374.036 277.09 373.358C277.09 372.68 276.541 372.131 275.864 372.131C275.187 372.131 274.638 372.68 274.638 373.358C274.638 374.036 275.187 374.586 275.864 374.586Z"
          fill="#77A4E5"/>
    <path d="M282.702 380.223C282.223 380.702 282.223 381.482 282.702 381.961C283.181 382.441 283.959 382.441 284.438 381.961C284.917 381.482 284.917 380.702 284.438 380.223C283.959 379.743 283.181 379.743 282.702 380.223Z"
          fill="#77A4E5"/>
    <path d="M293.915 361.596C293.915 360.92 294.465 360.369 295.141 360.369C295.817 360.369 296.367 360.92 296.367 361.596C296.367 362.273 295.817 362.824 295.141 362.824C294.465 362.824 293.915 362.273 293.915 361.596Z"
          fill="#77A4E5"/>
    <path d="M295.311 346.25H294.976V361.596H295.311V346.25Z" fill="#77A4E5"/>
    <path d="M302.801 354.794L294.677 361.18L295.298 361.973L303.422 355.587L302.801 354.794Z" fill="#77A4E5"/>
</svg>
