<svg xmlns="http://www.w3.org/2000/svg" xmlns:xlink="http://www.w3.org/1999/xlink" width="800" zoomAndPan="magnify" viewBox="0 0 600 225" height="300" preserveAspectRatio="xMidYMid meet" version="1.0"><defs><clipPath id="6609481ad6"><path d="M 11 143 L 99.75 143 L 99.75 225 L 11 225 Z M 11 143 " clip-rule="nonzero"/></clipPath><clipPath id="79941c7366"><path d="M 562 0 L 599.953125 0 L 599.953125 38 L 562 38 Z M 562 0 " clip-rule="nonzero"/></clipPath><clipPath id="3e38798f15"><path d="M 500.25 0 L 589 0 L 589 82 L 500.25 82 Z M 500.25 0 " clip-rule="nonzero"/></clipPath><clipPath id="972bce4ea1"><path d="M 551 0 L 599.953125 0 L 599.953125 49 L 551 49 Z M 551 0 " clip-rule="nonzero"/></clipPath><clipPath id="f61312ee40"><path d="M 553 32 L 599.953125 32 L 599.953125 90 L 553 90 Z M 553 32 " clip-rule="nonzero"/></clipPath></defs><rect x="-60" width="720" fill="#ffffff" y="-22.5" height="270" fill-opacity="1"/><rect x="-60" width="720" fill="#ffffff" y="-22.5" height="270" fill-opacity="1"/><path fill="#00aeef" d="M 37.746094 224.988281 L 0 224.988281 L 0 187.222656 Z M 37.746094 224.988281 " fill-opacity="1" fill-rule="nonzero"/><g clip-path="url(#6609481ad6)"><path fill="#00aeef" d="M 99.75 224.988281 L 86.074219 224.988281 L 44.808594 183.703125 L 11.46875 150.347656 L 18.304688 143.503906 Z M 99.75 224.988281 " fill-opacity="1" fill-rule="nonzero"/></g><path fill="#1b75bc" d="M 48.457031 224.988281 L 26.339844 224.988281 L 0 198.636719 L 0 176.507812 Z M 48.457031 224.988281 " fill-opacity="1" fill-rule="nonzero"/><path fill="#1b75bc" d="M 46.738281 181.773438 L 44.808594 183.703125 L 35.679688 192.835938 L 10.796875 167.941406 L 0 157.140625 L 0 135.011719 Z M 46.738281 181.773438 " fill-opacity="1" fill-rule="nonzero"/><path fill="#262262" d="M 78.875 224.988281 L 56.757812 224.988281 L 5.269531 173.476562 L 16.328125 162.410156 L 41.207031 187.304688 Z M 78.875 224.988281 " fill-opacity="1" fill-rule="nonzero"/><g clip-path="url(#79941c7366)"><path fill="#00aeef" d="M 562.25 0.0117188 L 600 0.0117188 L 600 37.777344 Z M 562.25 0.0117188 " fill-opacity="1" fill-rule="nonzero"/></g><g clip-path="url(#3e38798f15)"><path fill="#00aeef" d="M 500.25 0.0117188 L 513.925781 0.0117188 L 555.191406 41.296875 L 588.53125 74.652344 L 581.691406 81.496094 Z M 500.25 0.0117188 " fill-opacity="1" fill-rule="nonzero"/></g><g clip-path="url(#972bce4ea1)"><path fill="#1b75bc" d="M 551.539062 0.0117188 L 573.660156 0.0117188 L 600 26.363281 L 600 48.492188 Z M 551.539062 0.0117188 " fill-opacity="1" fill-rule="nonzero"/></g><g clip-path="url(#f61312ee40)"><path fill="#1b75bc" d="M 553.261719 43.226562 L 555.191406 41.296875 L 564.320312 32.164062 L 589.199219 57.058594 L 600 67.859375 L 600 89.988281 Z M 553.261719 43.226562 " fill-opacity="1" fill-rule="nonzero"/></g><path fill="#262262" d="M 521.121094 0.0117188 L 543.242188 0.0117188 L 594.730469 51.523438 L 583.671875 62.589844 L 558.789062 37.695312 Z M 521.121094 0.0117188 " fill-opacity="1" fill-rule="nonzero"/></svg>