<svg width="35" height="35" viewBox="0 0 35 35" fill="none" xmlns="http://www.w3.org/2000/svg">
    <path d="M26.3833 3.61852C24.0068 3.27828 17.8552 3.39007 15.5253 2.77639C9.78227 1.31245 4.36386 3.5836 3.64019 9.72098C3.38122 11.9066 3.21362 16.7729 2.60798 18.8821C0.921894 24.6918 2.97587 30.7056 8.97427 31.8873C11.0802 32.3122 16.6661 32.6484 18.7748 33.0624C24.7946 34.1998 30.7089 32.8884 31.3357 27.8058C31.6055 25.623 31.819 18.3849 32.4247 16.2757C34.0869 10.4323 32.8195 4.53598 26.3833 3.61852Z"
          fill="url(#paint0_linear_1541_12743)"/>
    <path d="M9.50889 19.7959C8.87697 19.9771 8.45892 20.5767 8.50742 21.2323L8.66557 23.3008C8.71597 23.9567 9.22102 24.4866 9.87378 24.5682C10.8627 22.9888 10.8911 21.0646 9.50889 19.7959Z"
          fill="url(#paint1_linear_1541_12743)"/>
    <path d="M26.6387 23.344C27.2914 23.4257 27.7965 23.9555 27.8469 24.6114L28.0048 26.6764C28.0561 27.3327 27.6369 27.934 27.0033 28.1128C25.9135 26.7491 25.7688 24.8575 26.6387 23.344Z"
          fill="url(#paint2_linear_1541_12743)"/>
    <path d="M28.3808 18.3259L9.7819 19.748C9.68948 19.7554 9.59793 19.7719 9.50875 19.7973C10.6002 21.1616 10.745 23.0552 9.87364 24.5697C9.9657 24.5812 10.0586 24.5836 10.1511 24.5769L28.7501 23.1548C27.5294 21.8224 27.3769 19.8284 28.3808 18.3259Z"
          fill="url(#paint3_linear_1541_12743)"/>
    <path d="M19.874 22.3589L12.3695 22.9327C12.272 22.9402 12.187 22.8672 12.1795 22.7697C12.1721 22.6722 12.245 22.5872 12.3425 22.5798L19.847 22.006C19.9445 21.9985 20.0295 22.0715 20.037 22.169C20.0444 22.2664 19.9715 22.3515 19.874 22.3589Z"
          fill="#FB8FA1"/>
    <path d="M26.4395 21.8597L23.3226 22.098C23.2251 22.1054 23.1401 22.0325 23.1326 21.935C23.1252 21.8375 23.1981 21.7525 23.2956 21.7451L26.4125 21.5067C26.51 21.4993 26.595 21.5722 26.6025 21.6697C26.6099 21.7671 26.537 21.8522 26.4395 21.8597Z"
          fill="#FB8FA1"/>
    <path d="M8.1073 24.731L26.3603 23.3354C26.4527 23.3287 26.5457 23.331 26.6377 23.3425C25.7664 24.857 25.9111 26.7505 27.0026 28.1149C26.9138 28.1421 26.8222 28.1586 26.7295 28.1642L8.47651 29.5598C9.48041 28.0573 9.32796 26.0634 8.1073 24.731Z"
          fill="url(#paint4_linear_1541_12743)"/>
    <path d="M24.3803 26.8688L12.3011 27.7923C12.2036 27.7998 12.1186 27.7268 12.1111 27.6293C12.1037 27.5319 12.1766 27.4468 12.2741 27.4394L24.3534 26.5158C24.4508 26.5084 24.5359 26.5813 24.5433 26.6788C24.5508 26.7762 24.4778 26.8613 24.3803 26.8688Z"
          fill="#CA82F8"/>
    <path d="M18.9977 25.7191L10.6319 26.3588C10.5383 26.3659 10.4567 26.2959 10.4495 26.2023C10.4494 26.2012 10.4493 26.2 10.4493 26.1988C10.4403 26.1074 10.5072 26.0259 10.5987 26.0169C10.601 26.0167 10.6034 26.0165 10.6058 26.0164L18.9716 25.3767C19.065 25.3677 19.1482 25.436 19.1572 25.5294C19.1573 25.5306 19.1575 25.5317 19.1576 25.533C19.1648 25.6285 19.0933 25.7118 18.9977 25.7191Z"
          fill="#CA82F8"/>
    <path d="M29.4874 23.3687L10.1719 24.8455C9.26735 24.9147 8.47799 24.2375 8.40883 23.3329L8.24986 21.2538C8.1807 20.3493 8.85792 19.5599 9.76247 19.4907L29.0779 18.0139C29.2203 18.0032 29.3444 18.1099 29.3551 18.2522C29.3657 18.3943 29.2594 18.5182 29.1174 18.5293L9.80187 20.0061C9.18346 20.0553 8.72142 20.5956 8.76872 21.2142L8.92687 23.2827C8.97417 23.9013 9.51297 24.365 10.1317 24.3197L29.4472 22.8428C29.5895 22.8318 29.7138 22.9382 29.7248 23.0805C29.7359 23.2228 29.6295 23.3471 29.4872 23.3582C29.487 23.3582 29.4868 23.3582 29.4866 23.3582L29.4874 23.3687Z"
          fill="#B999AE"/>
    <path d="M11.2258 15.9712L11.4771 19.2575C11.5851 20.6695 14.5799 21.25 18.1981 20.9734C21.8162 20.6967 24.6918 19.6709 24.5836 18.2554L24.3323 14.9691L11.2258 15.9712Z"
          fill="url(#paint5_linear_1541_12743)"/>
    <path d="M11.0403 13.5459L11.2916 16.8322C11.3995 18.2442 14.3944 18.8247 18.0125 18.5481C21.6306 18.2714 24.5062 17.2456 24.398 15.8301L24.1467 12.5438L11.0403 13.5459Z"
          fill="url(#paint6_linear_1541_12743)"/>
    <path d="M26.7499 28.4265L7.78032 29.8769C7.63577 29.8711 7.52322 29.7492 7.52902 29.6046C7.53385 29.4833 7.62148 29.3812 7.74065 29.358L26.7102 27.9076C27.3301 27.8602 27.7943 27.3192 27.7469 26.6992C27.7468 26.6981 27.7467 26.6969 27.7466 26.6957L27.5887 24.6307C27.534 24.0163 26.9964 23.5595 26.3812 23.6046L7.41165 25.055C7.2693 25.0657 7.14524 24.9591 7.13455 24.8167C7.12387 24.6746 7.23017 24.5507 7.37225 24.5396L26.3418 23.0893C27.2463 23.0201 28.0357 23.6973 28.1049 24.6019L28.2619 26.6562C28.3332 27.5627 27.6563 28.3553 26.7499 28.4265Z"
          fill="#975E80"/>
    <path d="M17.7718 15.3928L6.44373 12.4421L6.54925 13.8223L17.8773 16.773L28.6251 12.1345L28.5196 10.7542L17.7718 15.3928Z"
          fill="url(#paint7_linear_1541_12743)"/>
    <path d="M17.1918 7.80498L6.44367 12.44L17.7718 15.3907L28.5195 10.7521L17.1918 7.80498Z"
          fill="url(#paint8_linear_1541_12743)"/>
    <path d="M21.3591 19.1212C21.2635 19.1285 21.1802 19.057 21.1729 18.9615L20.8018 14.1079L17.3904 11.7946C17.3114 11.744 17.2884 11.6389 17.339 11.5598C17.3405 11.5576 17.3419 11.5554 17.3435 11.5532C17.3982 11.4751 17.505 11.4544 17.5849 11.5063L21.0674 13.8675C21.1106 13.8969 21.1378 13.9446 21.1412 13.9968L21.5191 18.9386C21.5244 19.0329 21.4533 19.1141 21.3591 19.1212Z"
          fill="#BD9FB2"/>
    <path d="M21.3451 18.9531L19.8802 25.101C19.8398 25.2923 19.9621 25.4801 20.1535 25.5205C20.1829 25.5267 20.213 25.5291 20.243 25.5277L23.4375 25.2835C23.632 25.2628 23.7727 25.0884 23.752 24.894C23.7488 24.8641 23.7419 24.8347 23.7312 24.8066L21.3451 18.9531Z"
          fill="url(#paint9_linear_1541_12743)"/>
    <path d="M21.3456 18.9527C20.7754 18.9982 20.3488 19.4955 20.3905 20.066C20.436 20.6362 20.9333 21.0628 21.5038 21.0211C22.075 20.9774 22.5026 20.479 22.4589 19.9078C22.4153 19.3367 21.9168 18.909 21.3456 18.9527Z"
          fill="url(#paint10_linear_1541_12743)"/>
    <path d="M12.8735 7.37128C12.8884 7.56624 12.7424 7.73636 12.5475 7.75126C12.3525 7.76617 12.1824 7.62022 12.1675 7.42526C12.1526 7.2303 12.2985 7.06018 12.4935 7.04528C12.6885 7.03037 12.8586 7.17632 12.8735 7.37128Z"
          fill="url(#paint11_linear_1541_12743)"/>
    <path d="M24.6784 7.51077C24.6496 7.70414 24.4695 7.83761 24.2761 7.80884C24.1415 7.78879 24.0303 7.69338 23.99 7.5634C23.9322 7.37666 24.0366 7.17831 24.2235 7.12047C24.4102 7.06263 24.6085 7.16711 24.6664 7.35391C24.6821 7.40464 24.6862 7.45825 24.6784 7.51077Z"
          fill="url(#paint12_linear_1541_12743)"/>
    <path d="M28.1417 16.2609C28.1566 16.4559 28.0106 16.626 27.8157 16.6409C27.6207 16.6558 27.4506 16.5099 27.4357 16.3149C27.4208 16.12 27.5667 15.9498 27.7617 15.9349C27.9566 15.92 28.1268 16.066 28.1417 16.2609Z"
          fill="url(#paint13_linear_1541_12743)"/>
    <path d="M8.33137 16.0429C8.34627 16.2379 8.20032 16.408 8.00536 16.4229C7.81041 16.4378 7.64028 16.2918 7.62538 16.0969C7.61047 15.9019 7.75643 15.7318 7.95138 15.7169C8.14634 15.702 8.31646 15.848 8.33137 16.0429Z"
          fill="url(#paint14_linear_1541_12743)"/>
    <path d="M11.6237 9.19843C11.6386 9.39339 11.4927 9.56351 11.2977 9.57841C11.1028 9.59332 10.9326 9.44736 10.9177 9.25241C10.9028 9.05745 11.0488 8.88733 11.2437 8.87242C11.4387 8.85752 11.6088 9.00347 11.6237 9.19843Z"
          fill="url(#paint15_linear_1541_12743)"/>
    <defs>
        <linearGradient id="paint0_linear_1541_12743" x1="1.72387" y1="19.1015" x2="33.4955" y2="16.6722"
                        gradientUnits="userSpaceOnUse">
            <stop stop-color="#FAF2FC"/>
            <stop offset="1" stop-color="#FFEFF6"/>
        </linearGradient>
        <linearGradient id="paint1_linear_1541_12743" x1="8.58585" y1="22.2626" x2="10.4324" y2="22.1214"
                        gradientUnits="userSpaceOnUse">
            <stop stop-color="#FA849E"/>
            <stop offset="1" stop-color="#FC99A3"/>
        </linearGradient>
        <linearGradient id="paint2_linear_1541_12743" x1="26.0833" y1="25.7808" x2="27.926" y2="25.6399"
                        gradientUnits="userSpaceOnUse">
            <stop stop-color="#BF7DF7"/>
            <stop offset="1" stop-color="#DF8BFB"/>
        </linearGradient>
        <linearGradient id="paint3_linear_1541_12743" x1="9.69059" y1="22.1795" x2="28.5656" y2="20.7363"
                        gradientUnits="userSpaceOnUse">
            <stop stop-color="#E96987"/>
            <stop offset="1" stop-color="#F091A9"/>
        </linearGradient>
        <linearGradient id="paint4_linear_1541_12743" x1="8.29125" y1="27.1415" x2="26.8203" y2="25.7248"
                        gradientUnits="userSpaceOnUse">
            <stop stop-color="#C571EE"/>
            <stop offset="1" stop-color="#C352D5"/>
        </linearGradient>
        <linearGradient id="paint5_linear_1541_12743" x1="11.4356" y1="18.7187" x2="24.5427" y2="17.7165"
                        gradientUnits="userSpaceOnUse">
            <stop stop-color="#431863"/>
            <stop offset="1" stop-color="#824C71"/>
        </linearGradient>
        <linearGradient id="paint6_linear_1541_12743" x1="11.2501" y1="16.2933" x2="24.3571" y2="15.2912"
                        gradientUnits="userSpaceOnUse">
            <stop stop-color="#704078"/>
            <stop offset="1" stop-color="#9E6381"/>
        </linearGradient>
        <linearGradient id="paint7_linear_1541_12743" x1="6.64091" y1="15.0254" x2="28.7175" y2="13.3375"
                        gradientUnits="userSpaceOnUse">
            <stop stop-color="#431863"/>
            <stop offset="1" stop-color="#824C71"/>
        </linearGradient>
        <linearGradient id="paint8_linear_1541_12743" x1="6.44315" y1="12.4376" x2="28.5198" y2="10.7496"
                        gradientUnits="userSpaceOnUse">
            <stop stop-color="#5C3273"/>
            <stop offset="1" stop-color="#A36777"/>
        </linearGradient>
        <linearGradient id="paint9_linear_1541_12743" x1="19.6535" y1="22.3236" x2="23.5333" y2="22.027"
                        gradientUnits="userSpaceOnUse">
            <stop stop-color="#704078"/>
            <stop offset="1" stop-color="#9E6381"/>
        </linearGradient>
        <linearGradient id="paint10_linear_1541_12743" x1="20.3904" y1="20.0619" x2="22.4625" y2="19.9035"
                        gradientUnits="userSpaceOnUse">
            <stop stop-color="#B28EA5"/>
            <stop offset="1" stop-color="#D0BBC9"/>
        </linearGradient>
        <linearGradient id="paint11_linear_1541_12743" x1="12.1811" y1="7.41986" x2="12.8729" y2="7.36697"
                        gradientUnits="userSpaceOnUse">
            <stop stop-color="#BF7DF7"/>
            <stop offset="1" stop-color="#DF8BFB"/>
        </linearGradient>
        <linearGradient id="paint12_linear_1541_12743" x1="23.9841" y1="7.48072" x2="24.6724" y2="7.42809"
                        gradientUnits="userSpaceOnUse">
            <stop stop-color="#B28EA5"/>
            <stop offset="1" stop-color="#D0BBC9"/>
        </linearGradient>
        <linearGradient id="paint13_linear_1541_12743" x1="27.4358" y1="16.3108" x2="28.1242" y2="16.2581"
                        gradientUnits="userSpaceOnUse">
            <stop stop-color="#C571EE"/>
            <stop offset="1" stop-color="#C352D5"/>
        </linearGradient>
        <linearGradient id="paint14_linear_1541_12743" x1="7.64239" y1="16.0914" x2="8.33073" y2="16.0388"
                        gradientUnits="userSpaceOnUse">
            <stop stop-color="#B28EA5"/>
            <stop offset="1" stop-color="#D0BBC9"/>
        </linearGradient>
        <linearGradient id="paint15_linear_1541_12743" x1="10.9313" y1="9.24709" x2="11.6232" y2="9.1942"
                        gradientUnits="userSpaceOnUse">
            <stop stop-color="#FA849E"/>
            <stop offset="1" stop-color="#FC99A3"/>
        </linearGradient>
    </defs>
</svg>
