<svg width="174" height="30" viewBox="0 0 174 30" fill="none" xmlns="http://www.w3.org/2000/svg">
    <path d="M15.7142 30.0075C24.0005 30.0075 30.7179 23.2901 30.7179 15.0037C30.7179 6.7174 24.0005 0 15.7142 0C7.42785 0 0.710449 6.7174 0.710449 15.0037C0.710449 23.2901 7.42785 30.0075 15.7142 30.0075Z"
          fill="#EB001B"/>
    <path d="M33.8372 30.0075C42.1236 30.0075 48.841 23.2901 48.841 15.0037C48.841 6.7174 42.1236 0 33.8372 0C25.5509 0 18.8335 6.7174 18.8335 15.0037C18.8335 23.2901 25.5509 30.0075 33.8372 30.0075Z"
          fill="#F79E1B"/>
    <path d="M24.7722 3.02344C28.3847 5.76091 30.7108 10.099 30.7108 14.9756C30.7108 19.8522 28.3847 24.1977 24.7722 26.9352C21.1596 24.1977 18.8335 19.8596 18.8335 14.9756C18.8335 10.0915 21.1671 5.76091 24.7722 3.02344Z"
          fill="#FF5F00"/>
    <path d="M47.9059 24.9688V25.0959H47.6291V25.8139H47.4945V25.0959H47.2178V24.9688H47.9059ZM48.9605 24.9688V25.8139H48.8259V25.1183L48.579 25.7317H48.4294L48.1826 25.1258V25.8139H48.048V24.9688H48.2574L48.5042 25.5746L48.7511 24.9688H48.9605Z"
          fill="#F79E1B"/>
    <path d="M172.953 15.5053V15.6325H172.676V16.3505H172.541V15.6325H172.264V15.5053H172.953ZM174 15.5053V16.3505H173.865V15.6549L173.618 16.2682H173.476L173.229 15.6624V16.3505H173.095V15.5053H173.304L173.551 16.1111L173.798 15.5053H174ZM70.447 6.01391C72.7431 6.01391 74.3662 7.59207 74.3662 9.85086V15.9092H72.2495V10.5464C72.2495 8.92341 71.4118 8.01839 70.0057 8.01839C68.6444 8.01839 67.5075 8.91593 67.5075 10.5689V15.9167H65.3909V10.5539C65.3909 8.93089 64.5532 8.02587 63.147 8.02587C61.7858 8.02587 60.6489 8.92341 60.6489 10.5764V15.9242H58.5322V6.27569H60.6265V7.44996C61.4043 6.31308 62.601 6.02139 63.5883 6.02139C65.0618 6.02139 66.2585 6.6721 66.9241 7.74166C67.7618 6.35048 69.2503 6.01391 70.447 6.01391ZM86.6474 6.26073V15.9092H84.5457V14.7499C83.88 15.6025 82.8853 16.156 81.5165 16.156C78.8164 16.156 76.6923 14.0319 76.6923 11.085C76.6923 8.13807 78.8164 6.01391 81.5165 6.01391C82.8853 6.01391 83.88 6.57486 84.5457 7.435V6.26073H86.6474ZM81.7633 7.99596C79.9533 7.99596 78.8538 9.39461 78.8538 11.085C78.8538 12.7753 79.9533 14.174 81.7633 14.174C83.506 14.174 84.6728 12.8426 84.6728 11.085C84.6728 9.3273 83.506 7.99596 81.7633 7.99596ZM97.2383 7.03859L96.3333 8.67658C95.7499 8.31757 94.5532 7.85385 93.3565 7.85385C92.2121 7.85385 91.5315 8.31757 91.5315 8.9982C91.5315 9.67135 92.2345 9.86582 93.1246 9.99297L94.1194 10.1426C96.2211 10.4417 97.4701 11.3393 97.4701 12.9922C97.4701 14.8471 95.8621 16.1411 93.0797 16.1411C92.085 16.1411 90.3497 15.9466 88.9436 14.8995L89.9234 13.3213C90.619 13.8524 91.5315 14.3086 93.1022 14.3086C94.5382 14.3086 95.2936 13.8524 95.2936 13.1343C95.2936 12.5883 94.7701 12.2293 93.6257 12.0648L92.616 11.9376C90.4844 11.6459 89.3475 10.6586 89.3475 9.11039C89.3475 7.19566 90.8808 6.02139 93.334 6.02139C94.8449 6.02139 96.2435 6.39536 97.2383 7.03859ZM106.341 6.26073V8.17546H102.646V12.3714C102.646 13.6728 103.334 14.174 104.179 14.174C104.83 14.174 105.548 13.8823 106.124 13.5233L106.962 15.2061C106.184 15.7297 105.211 16.1635 104 16.1635C101.816 16.1635 100.537 14.9892 100.537 12.4163V8.17546H98.6145V6.26073H100.537V3.34375H102.653V6.26073H106.341ZM112.833 6.01391C115.533 6.01391 117.38 8.07075 117.395 11.0775C117.395 11.3467 117.373 11.6235 117.358 11.8628H110.23C110.514 13.5981 111.733 14.3161 113.102 14.3161C114.067 14.3161 115.099 13.9346 115.892 13.2989L116.939 14.8022C115.765 15.812 114.433 16.1635 112.975 16.1635C110.088 16.1635 108.039 14.1515 108.039 11.0924C108.031 8.06327 109.998 6.01391 112.833 6.01391ZM112.796 7.88376C111.292 7.88376 110.462 8.84861 110.238 10.2622H115.241C115.009 8.75886 114.134 7.88376 112.796 7.88376ZM124.703 6.01391C125.346 6.01391 125.84 6.09618 126.326 6.28317L125.825 8.36993C125.383 8.13807 124.74 8.01839 124.224 8.01839C122.885 8.01839 121.928 8.96828 121.928 10.6063V15.9092H119.826V6.26073H121.913V7.34525C122.541 6.43275 123.528 6.01391 124.703 6.01391ZM133.416 6.01391C136.116 6.01391 138.241 8.13807 138.241 11.085C138.241 14.0319 136.116 16.156 133.416 16.156C132.048 16.156 131.06 15.6025 130.395 14.7574V19.9331H128.293V6.26073H130.395V7.40508C131.06 6.56738 132.048 6.01391 133.416 6.01391ZM133.162 7.99596C131.419 7.99596 130.252 9.3273 130.252 11.085C130.252 12.8426 131.419 14.174 133.162 14.174C134.972 14.174 136.071 12.7753 136.071 11.085C136.071 9.39461 134.972 7.99596 133.162 7.99596ZM149.923 6.26073V15.9092H147.822V14.7499C147.156 15.6025 146.161 16.156 144.793 16.156C142.092 16.156 139.968 14.0319 139.968 11.085C139.968 8.13807 142.092 6.01391 144.793 6.01391C146.161 6.01391 147.156 6.57486 147.822 7.435V6.26073H149.923ZM145.039 7.99596C143.229 7.99596 142.13 9.39461 142.13 11.085C142.13 12.7753 143.229 14.174 145.039 14.174C146.782 14.174 147.949 12.8426 147.949 11.085C147.949 9.3273 146.782 7.99596 145.039 7.99596ZM160.514 7.03859L159.609 8.67658C159.026 8.31757 157.829 7.85385 156.632 7.85385C155.488 7.85385 154.807 8.31757 154.807 8.9982C154.807 9.67135 155.511 9.86582 156.401 9.99297L157.395 10.1426C159.497 10.4417 160.746 11.3393 160.746 12.9922C160.746 14.8471 159.138 16.1411 156.356 16.1411C155.361 16.1411 153.626 15.9466 152.22 14.8995L153.199 13.3213C153.895 13.8524 154.807 14.3086 156.378 14.3086C157.814 14.3086 158.57 13.8524 158.57 13.1343C158.57 12.5883 158.046 12.2293 156.902 12.0648L155.892 11.9376C153.76 11.6459 152.623 10.6586 152.623 9.11039C152.623 7.19566 154.157 6.02139 156.61 6.02139C158.121 6.02139 159.52 6.39536 160.514 7.03859ZM170.514 7.03859L169.609 8.67658C169.026 8.31757 167.829 7.85385 166.632 7.85385C165.488 7.85385 164.807 8.31757 164.807 8.9982C164.807 9.67135 165.511 9.86582 166.401 9.99297L167.395 10.1426C169.497 10.4417 170.746 11.3393 170.746 12.9922C170.746 14.8471 169.138 16.1411 166.356 16.1411C165.361 16.1411 163.626 15.9466 162.22 14.8995L163.199 13.3213C163.895 13.8524 164.807 14.3086 166.378 14.3086C167.814 14.3086 168.57 13.8524 168.57 13.1343C168.57 12.5883 168.046 12.2293 166.902 12.0648L165.892 11.9376C163.76 11.6459 162.623 10.6586 162.623 9.11039C162.623 7.19566 164.157 6.02139 166.61 6.02139C168.121 6.02139 169.52 6.39536 170.514 7.03859ZM61.0827 21.1224C62.3542 21.1224 63.349 22.1171 63.349 23.5083C63.349 24.8995 62.3542 25.8942 61.0827 25.8942C60.4395 25.8942 59.9758 25.6325 59.6616 25.236V25.7746H58.6743V18.9608H59.6616V21.7806C59.9683 21.3841 60.4395 21.1224 61.0827 21.1224ZM60.963 22.0573C60.1478 22.0573 59.5943 22.6856 59.5943 23.5083C59.5943 24.331 60.1403 24.9593 60.963 24.9593C61.8157 24.9593 62.3318 24.3011 62.3318 23.5083C62.3318 22.7155 61.8157 22.0573 60.963 22.0573ZM68.6145 21.242L65.0319 27.6968H63.9324L65.5554 24.8471L63.5509 21.242H64.6579L66.1164 23.8449L67.5225 21.242H68.6145ZM77.0438 21.1224C78.1209 21.1224 78.8838 21.8628 78.8838 22.9249V25.7746H77.889V23.254C77.889 22.4911 77.4926 22.0648 76.8344 22.0648C76.1986 22.0648 75.6601 22.4836 75.6601 23.2615V25.7746H74.6654V23.254C74.6654 22.4911 74.2764 22.0648 73.6108 22.0648C72.975 22.0648 72.4365 22.4836 72.4365 23.2615V25.7746H71.4417V21.242H72.429V21.7955C72.7955 21.257 73.3565 21.1224 73.8202 21.1224C74.5083 21.1224 75.0767 21.429 75.3834 21.9301C75.7798 21.2869 76.4829 21.1224 77.0438 21.1224ZM84.5606 21.242V25.7746H83.5734V25.2286C83.2592 25.6325 82.7955 25.8942 82.1523 25.8942C80.8808 25.8942 79.886 24.8995 79.886 23.5083C79.886 22.1171 80.8883 21.1224 82.1523 21.1224C82.7955 21.1224 83.2667 21.3841 83.5734 21.788V21.242H84.5606ZM82.2645 22.0573C81.4118 22.0573 80.8957 22.7155 80.8957 23.5083C80.8957 24.3011 81.4118 24.9593 82.2645 24.9593C83.0797 24.9593 83.6332 24.331 83.6332 23.5083C83.6332 22.6781 83.0872 22.0573 82.2645 22.0573ZM89.4447 21.6085L89.0184 22.3789C88.7416 22.2069 88.1807 21.99 87.6197 21.99C87.0812 21.99 86.7596 22.2069 86.7596 22.5285C86.7596 22.8426 87.0887 22.9324 87.5075 22.9997L87.9788 23.0745C88.966 23.2166 89.5569 23.6354 89.5569 24.4133C89.5569 25.2809 88.8015 25.8942 87.4926 25.8942C87.0214 25.8942 86.2136 25.8045 85.5479 25.3108L86.0042 24.5704C86.3333 24.8247 86.7596 25.0341 87.5001 25.0341C88.1732 25.0341 88.5322 24.8247 88.5322 24.4806C88.5322 24.2263 88.2854 24.0543 87.7469 23.9795L87.2757 23.9197C86.2734 23.785 85.7349 23.3213 85.7349 22.5883C85.7349 21.6908 86.4529 21.1373 87.6123 21.1373C88.3153 21.1298 88.9735 21.3019 89.4447 21.6085ZM93.6257 21.242V22.1396H91.8905V24.1141C91.8905 24.7274 92.2121 24.9593 92.6085 24.9593C92.9152 24.9593 93.2518 24.8247 93.521 24.6526L93.9099 25.4455C93.5434 25.6923 93.0872 25.8942 92.5188 25.8942C91.4941 25.8942 90.8882 25.3408 90.8882 24.1366V22.1396H89.9832V21.242H90.8882V19.8733H91.883V21.242H93.6257ZM96.5801 21.1224C97.8516 21.1224 98.7192 22.0872 98.7267 23.5008C98.7267 23.628 98.7192 23.7551 98.7043 23.8673H95.3535C95.4881 24.6826 96.0565 25.0191 96.6998 25.0191C97.156 25.0191 97.6347 24.8396 98.0087 24.5405L98.5023 25.2435C97.9488 25.7147 97.3206 25.8793 96.6399 25.8793C95.2787 25.8793 94.3213 24.9294 94.3213 23.4933C94.3288 22.0872 95.2488 21.1224 96.5801 21.1224ZM96.5651 22.0049C95.8621 22.0049 95.4657 22.4612 95.361 23.1194H97.7095C97.6048 22.4163 97.1934 22.0049 96.5651 22.0049ZM102.063 21.1224C102.362 21.1224 102.594 21.1598 102.825 21.2495L102.586 22.2293C102.377 22.1171 102.077 22.0648 101.831 22.0648C101.202 22.0648 100.754 22.5061 100.754 23.2839V25.7746H99.7663V21.242H100.746V21.7506C101.045 21.3243 101.509 21.1224 102.063 21.1224ZM105.525 21.1224C106.199 21.1224 106.819 21.3692 107.216 21.8479L106.58 22.521C106.266 22.2218 105.929 22.0498 105.488 22.0498C104.725 22.0498 104.149 22.6482 104.149 23.5008C104.149 24.3535 104.725 24.9518 105.488 24.9518C105.922 24.9518 106.311 24.7499 106.603 24.4806L107.216 25.1613C106.804 25.6399 106.199 25.8868 105.525 25.8868C104.082 25.8868 103.14 24.8621 103.14 23.5008C103.14 22.147 104.082 21.1224 105.525 21.1224ZM112.399 21.242V25.7746H111.412V25.2286C111.098 25.6325 110.634 25.8942 109.991 25.8942C108.719 25.8942 107.724 24.8995 107.724 23.5083C107.724 22.1171 108.719 21.1224 109.991 21.1224C110.634 21.1224 111.105 21.3841 111.412 21.788V21.242H112.399ZM110.11 22.0573C109.258 22.0573 108.742 22.7155 108.742 23.5083C108.742 24.3011 109.258 24.9593 110.11 24.9593C110.926 24.9593 111.479 24.331 111.479 23.5083C111.472 22.6781 110.926 22.0573 110.11 22.0573ZM116.071 21.1224C116.371 21.1224 116.603 21.1598 116.834 21.2495L116.595 22.2293C116.386 22.1171 116.086 22.0648 115.84 22.0648C115.211 22.0648 114.763 22.5061 114.763 23.2839V25.7746H113.775V21.242H114.755V21.7506C115.047 21.3243 115.511 21.1224 116.071 21.1224ZM119.594 21.1224C120.238 21.1224 120.709 21.3841 121.015 21.788V18.9608H122.003V25.7746H121.015V25.2286C120.701 25.6325 120.238 25.8942 119.594 25.8942C118.323 25.8942 117.328 24.8995 117.328 23.5083C117.328 22.1171 118.33 21.1224 119.594 21.1224ZM119.714 22.0573C118.861 22.0573 118.345 22.7155 118.345 23.5083C118.345 24.3011 118.861 24.9593 119.714 24.9593C120.529 24.9593 121.083 24.331 121.083 23.5083C121.083 22.6781 120.537 22.0573 119.714 22.0573Z"
          fill="white"/>
</svg>
