<svg width="93" height="30" viewBox="0 0 93 30" fill="none" xmlns="http://www.w3.org/2000/svg">
    <path d="M60.5053 0.03125C53.9471 0.03125 48.0863 3.43052 48.0863 9.71094C48.0863 16.9133 58.4806 17.4108 58.4806 21.0291C58.4806 22.5526 56.7347 23.9164 53.7527 23.9164C49.5206 23.9164 46.3576 22.0108 46.3576 22.0108L45.0042 28.3484C45.0042 28.3484 48.6479 29.9581 53.4856 29.9581C60.6559 29.9581 66.298 26.3918 66.298 20.0042C66.298 12.3935 55.8605 11.9108 55.8605 8.55245C55.8605 7.35884 57.2937 6.05122 60.2672 6.05122C63.6221 6.05122 66.3594 7.43715 66.3594 7.43715L67.6839 1.31612C67.6839 1.31612 64.7056 0.03125 60.5053 0.03125ZM0.503812 0.493258L0.344971 1.41718C0.344971 1.41718 3.10407 1.92209 5.58904 2.92941C8.78861 4.08438 9.0166 4.75682 9.55544 6.84524L15.4274 29.4817H23.299L35.4256 0.493258H27.5722L19.7801 20.2026L16.6005 3.49598C16.3089 1.58397 14.8318 0.493258 13.0238 0.493258H0.503812ZM38.5836 0.493258L32.4228 29.4816H39.9118L46.0509 0.493165H38.5836V0.493258ZM80.3519 0.493258C78.546 0.493258 77.5893 1.46008 76.8872 3.14955L65.9154 29.4816H73.7689L75.2883 25.0928H84.856L85.78 29.4816H92.7095L86.6642 0.493258H80.3519ZM81.3733 8.32501L83.7011 19.2029H77.4645L81.3733 8.32501Z"
          fill="white"/>
</svg>
