<svg width="49" height="40" viewBox="0 0 49 40" fill="none" xmlns="http://www.w3.org/2000/svg">
    <g clip-path="url(#clip0_1541_7668)">
        <path d="M5.25818 18.4252C6.32097 16.1983 7.36101 14.3838 8.19843 13.0244C9.0834 11.5895 10.3323 9.58304 12.3276 7.22758C14.1141 5.1191 15.4581 3.96178 16.1011 3.43108C17.5961 2.20028 18.632 1.62468 19.3081 1.29198C20.5942 0.65923 21.6012 0.402047 21.8389 0.342855C21.8389 0.342855 23.2987 -0.018425 24.7337 -5.48803e-05C28.0751 0.0468911 31.0319 2.29213 31.5819 2.72077C32.9279 3.82706 34.6048 5.35587 36.3376 7.35005C36.7118 7.78073 38.3308 9.66469 40.1814 12.5957C42.7887 16.7229 44.1555 20.2275 45.0363 22.5218C45.3795 23.4158 46.6264 26.7244 47.7015 31.2639C47.7015 31.2639 47.8339 31.6354 48.9628 37.9894C48.9794 38.0833 49.0559 38.5385 48.8967 39.0365C48.7767 39.4182 48.5845 39.6142 48.5059 39.6897C48.4645 39.7285 48.3694 39.8162 48.2391 39.8836C47.8173 40.102 47.3438 39.9448 47.2074 39.8958C47.0047 39.7938 46.7856 39.6652 46.5623 39.506C45.975 39.0896 45.5801 38.6161 45.3237 38.2446C44.4429 37.1424 43.2105 35.6258 41.7094 33.8419C40.0428 31.862 38.827 30.4883 36.8338 28.2328C34.5449 25.6447 33.3849 24.3343 32.5826 23.5342C31.1745 22.1319 29.5804 20.5602 27.186 18.8743C25.6848 17.817 24.0204 16.6596 21.5433 15.7044C20.3399 15.239 18.787 14.6512 16.6408 14.4593C14.3415 14.2552 12.4434 14.6022 11.2214 14.9247C10.2827 15.1859 9.02757 15.6432 7.69391 16.4739C6.64766 17.125 5.8454 17.8272 5.25818 18.4211V18.4252Z"
              fill="#23255C"/>
        <path d="M27.6533 20.9972C26.9771 20.4297 26.0239 19.6888 24.8081 18.9295C22.6019 17.5497 20.2448 16.4495 17.6333 16.0964C15.6938 15.8351 13.7171 15.976 11.8313 16.4883C10.6528 16.8088 9.47419 17.2109 8.40106 17.7946C7.82211 18.111 7.2721 18.4825 6.79447 18.9356C6.38713 19.3214 5.84953 19.8725 5.28713 20.591C4.44351 21.6687 3.95554 22.5974 3.48617 23.4996C3.34557 23.771 2.81624 24.8018 2.24143 26.2714C1.49499 28.184 1.11867 29.7087 0.858144 30.7721C0.589345 31.8784 0.353629 32.9949 0.202688 34.1216C0.0558824 35.2075 -0.066111 36.3485 0.0290025 37.4425C0.0827623 38.0712 0.202688 39.106 0.8354 39.4428C1.43296 39.7633 2.09048 39.1632 2.48128 38.7774C3.03542 38.2284 3.56268 37.6426 4.0217 37.0139C5.29746 35.2626 6.81928 33.6909 8.08884 31.9356C9.30257 30.2557 10.477 28.8555 11.5047 27.7247C12.3111 26.8389 13.0823 25.9959 14.1926 25.0202C15.7269 23.6731 17.2466 22.6566 18.5968 21.8891C19.6079 21.3299 21.2455 20.5889 23.2822 20.3664C24.1672 20.2705 25.4408 20.144 26.9027 20.6726C27.2211 20.7869 27.4775 20.9073 27.6512 20.9972H27.6533Z"
              fill="#51BAE7"/>
    </g>
    <defs>
        <clipPath id="clip0_1541_7668">
            <rect width="49" height="40" fill="white"/>
        </clipPath>
    </defs>
</svg>
