<svg width="18" height="18" viewBox="0 0 18 18" fill="none" xmlns="http://www.w3.org/2000/svg">
    <g clip-path="url(#clip0_1541_7862)">
        <path d="M17.0064 3.181e-08H0.992752C0.444397 0.00027469 -0.000137297 0.445084 3.181e-08 0.993576V17.0072C0.00027469 17.5556 0.445084 18.0001 0.993576 18H17.0064C17.5551 18.0001 17.9999 17.5555 18 17.0068C18 17.0067 18 17.0066 18 17.0064V0.992752C17.9997 0.444397 17.5549 -0.000137297 17.0064 3.181e-08Z"
              fill="#4267B2"/>
        <path d="M12.4277 18.0001V11.0391H14.7744L15.126 8.31453H12.4277V6.57924C12.4277 5.79221 12.6462 5.25594 13.7748 5.25594H15.2051V2.82562C14.9562 2.79253 14.1025 2.71851 13.109 2.71851C11.0348 2.71851 9.61523 3.98413 9.61523 6.30939V8.31453H7.27734V11.0391H9.61523V18.0001H12.4277Z"
              fill="white"/>
    </g>
    <defs>
        <clipPath id="clip0_1541_7862">
            <rect width="18" height="18" fill="white"/>
        </clipPath>
    </defs>
</svg>
