<svg width="18" height="18" viewBox="0 0 18 18" fill="none" xmlns="http://www.w3.org/2000/svg">
    <g clip-path="url(#clip0_1541_7852)">
        <path d="M3.98918 10.8777L3.36263 13.2167L1.07258 13.2652C0.388195 11.9958 0 10.5435 0 9.0001C0 7.50768 0.362953 6.10031 1.00631 4.86108H1.0068L3.04559 5.23486L3.9387 7.26141C3.75177 7.80637 3.64989 8.39137 3.64989 9.0001C3.64996 9.66076 3.76963 10.2937 3.98918 10.8777Z"
              fill="#FBBB00"/>
        <path d="M17.8428 7.3186C17.9461 7.86303 18 8.42529 18 8.99992C18 9.64426 17.9323 10.2728 17.8032 10.8791C17.3651 12.9421 16.2203 14.7436 14.6344 16.0184L14.6339 16.0179L12.066 15.8869L11.7025 13.6181C12.7548 13.001 13.5772 12.0352 14.0104 10.8791H9.19788V7.3186H14.0806H17.8428Z"
              fill="#518EF8"/>
        <path d="M14.6339 16.0181L14.6344 16.0185C13.0921 17.2583 11.1328 18 9.00005 18C5.57263 18 2.59275 16.0843 1.07263 13.2651L3.98923 10.8777C4.74927 12.9061 6.70603 14.3501 9.00005 14.3501C9.98608 14.3501 10.9098 14.0835 11.7025 13.6182L14.6339 16.0181Z"
              fill="#28B446"/>
        <path d="M14.7447 2.07197L11.8291 4.45894C11.0087 3.94615 10.039 3.64992 9.00004 3.64992C6.65409 3.64992 4.66073 5.16013 3.93877 7.26131L1.00684 4.86098H1.00635C2.50421 1.97307 5.52168 0 9.00004 0C11.1838 0 13.186 0.777867 14.7447 2.07197Z"
              fill="#F14336"/>
    </g>
    <defs>
        <clipPath id="clip0_1541_7852">
            <rect width="18" height="18" fill="white"/>
        </clipPath>
    </defs>
</svg>
